<?xml version="1.0" encoding="UTF-8" standalone="no"?>
<svg
   xmlns:dc="http://purl.org/dc/elements/1.1/"
   xmlns:cc="http://creativecommons.org/ns#"
   xmlns:rdf="http://www.w3.org/1999/02/22-rdf-syntax-ns#"
   xmlns:svg="http://www.w3.org/2000/svg"
   xmlns="http://www.w3.org/2000/svg"
   xmlns:sodipodi="http://sodipodi.sourceforge.net/DTD/sodipodi-0.dtd"
   xmlns:inkscape="http://www.inkscape.org/namespaces/inkscape"
   viewBox="0 0 248.972 156.342"
   version="1.1"
   id="svg356"
   sodipodi:docname="what-is-a-neural-network-fig-1 (copy).svg"
   inkscape:version="0.92.5 (2060ec1f9f, 2020-04-08)">
  <metadata
     id="metadata362">
    <rdf:RDF>
      <cc:Work
         rdf:about="">
        <dc:format>image/svg+xml</dc:format>
        <dc:type
           rdf:resource="http://purl.org/dc/dcmitype/StillImage" />
      </cc:Work>
    </rdf:RDF>
  </metadata>
  <defs
     id="defs360" />
  <sodipodi:namedview
     pagecolor="#ffffff"
     bordercolor="#666666"
     borderopacity="1"
     objecttolerance="10"
     gridtolerance="10"
     guidetolerance="10"
     inkscape:pageopacity="0"
     inkscape:pageshadow="2"
     inkscape:window-width="1848"
     inkscape:window-height="1016"
     id="namedview358"
     showgrid="false"
     inkscape:zoom="3.9420666"
     inkscape:cx="129.16514"
     inkscape:cy="78.944053"
     inkscape:window-x="72"
     inkscape:window-y="27"
     inkscape:window-maximized="1"
     inkscape:current-layer="g354" />
  <g
     id="g354">
    <g
       id="g14"
       style="display:none">
      <path
         d="m 13.353,31.178 v 6.066 H 12.58 v -6.066 z"
         id="path2"
         inkscape:connector-curvature="0"
         style="fill:#231f20" />
      <path
         d="m 15.437,32.963 0.061,0.817 0.053,0.132 v 3.332 H 14.8 v -4.281 z m 1.969,-0.106 a 1.033,1.033 0 0 1 1.16,1.178 v 3.209 h -0.747 v -3 a 0.926,0.926 0 0 0 -0.141,-0.593 0.6,0.6 0 0 0 -0.474,-0.163 1.784,1.784 0 0 0 -0.791,0.194 q -0.4,0.194 -0.941,0.527 l -0.035,-0.536 a 4.779,4.779 0 0 1 0.993,-0.6 2.43,2.43 0 0 1 0.976,-0.216 z"
         id="path4"
         inkscape:connector-curvature="0"
         style="fill:#231f20" />
      <path
         d="m 20.527,32.963 0.08,0.888 0.052,0.114 v 2.743 l -0.035,0.106 c 0.018,0.164 0.028,0.322 0.031,0.474 0.003,0.152 0,0.314 0,0.484 v 1.239 h -0.747 v -6.048 z m 1.838,-0.106 a 1.207,1.207 0 0 1 1.125,0.576 3.356,3.356 0 0 1 0.343,1.693 3.994,3.994 0 0 1 -0.176,1.314 1.276,1.276 0 0 1 -0.531,0.7 1.775,1.775 0 0 1 -0.911,0.211 3.047,3.047 0 0 1 -0.831,-0.115 3.135,3.135 0 0 1 -0.8,-0.351 l 0.044,-0.449 q 0.413,0.115 0.729,0.19 a 2.956,2.956 0 0 0 0.669,0.074 1.2,1.2 0 0 0 0.6,-0.131 0.794,0.794 0 0 0 0.33,-0.476 3.451,3.451 0 0 0 0.105,-0.966 3.8,3.8 0 0 0 -0.1,-0.959 0.788,0.788 0 0 0 -0.853,-0.66 1.579,1.579 0 0 0 -0.7,0.168 5.075,5.075 0 0 0 -0.8,0.51 l -0.07,-0.5 a 2.583,2.583 0 0 1 0.536,-0.44 2.719,2.719 0 0 1 0.629,-0.286 2.21,2.21 0 0 1 0.662,-0.103 z"
         id="path6"
         inkscape:connector-curvature="0"
         style="fill:#231f20" />
      <path
         d="m 25.732,32.963 v 3.006 a 0.8,0.8 0 0 0 0.149,0.572 0.707,0.707 0 0 0 0.528,0.167 1.646,1.646 0 0 0 0.717,-0.171 8.48,8.48 0 0 0 0.857,-0.5 l 0.1,0.519 a 4.412,4.412 0 0 1 -0.972,0.6 2.4,2.4 0 0 1 -0.954,0.2 1.039,1.039 0 0 1 -1.17,-1.179 v -3.214 z m 2.919,0 v 4.281 h -0.6 L 27.981,36.435 27.9,36.3 v -3.34 z"
         id="path8"
         inkscape:connector-curvature="0"
         style="fill:#231f20" />
      <path
         d="m 32.458,32.963 v 0.588 h -2.884 v -0.545 l 0.844,-0.043 z M 31.1,31.7 v 4.37 a 0.606,0.606 0 0 0 0.132,0.44 0.62,0.62 0 0 0 0.448,0.132 h 0.651 l 0.088,0.571 a 3.234,3.234 0 0 1 -0.326,0.062 q -0.184,0.025 -0.36,0.039 c -0.118,0.009 -0.211,0.013 -0.282,0.013 a 1.068,1.068 0 0 1 -0.817,-0.3 1.211,1.211 0 0 1 -0.281,-0.862 V 31.7 Z"
         id="path10"
         inkscape:connector-curvature="0"
         style="fill:#231f20" />
      <path
         d="m 37.162,31.178 v 6.066 h -0.774 v -4.809 c 0,-0.088 0,-0.176 0.009,-0.263 a 1.832,1.832 0 0 1 0.035,-0.265 L 34.946,32.374 34.84,31.8 36.388,31.176 Z"
         id="path12"
         inkscape:connector-curvature="0"
         style="fill:#231f20" />
    </g>
    <g
       id="g28"
       style="display:none">
      <path
         d="m 214.3,76.492 a 3.47,3.47 0 0 1 1.122,0.159 1.521,1.521 0 0 1 0.738,0.522 2.446,2.446 0 0 1 0.405,0.972 8.857,8.857 0 0 1 0,2.989 2.433,2.433 0 0 1 -0.405,0.972 1.523,1.523 0 0 1 -0.738,0.523 4.059,4.059 0 0 1 -2.243,0 1.544,1.544 0 0 1 -0.742,-0.523 2.366,2.366 0 0 1 -0.41,-0.972 8.857,8.857 0 0 1 0,-2.989 2.378,2.378 0 0 1 0.41,-0.972 1.542,1.542 0 0 1 0.742,-0.522 3.468,3.468 0 0 1 1.121,-0.159 z m 0,0.695 a 1.707,1.707 0 0 0 -0.945,0.228 1.266,1.266 0 0 0 -0.492,0.761 7.438,7.438 0 0 0 0,2.923 1.264,1.264 0 0 0 0.492,0.765 2.066,2.066 0 0 0 1.891,0 1.264,1.264 0 0 0 0.492,-0.765 7.438,7.438 0 0 0 0,-2.923 1.266,1.266 0 0 0 -0.492,-0.761 1.708,1.708 0 0 0 -0.946,-0.228 z"
         id="path16"
         inkscape:connector-curvature="0"
         style="fill:#231f20" />
      <path
         d="M 218.641,78.391 V 81.4 a 0.8,0.8 0 0 0 0.149,0.572 0.7,0.7 0 0 0 0.527,0.167 1.627,1.627 0 0 0 0.717,-0.172 8.013,8.013 0 0 0 0.858,-0.5 l 0.1,0.519 a 4.391,4.391 0 0 1 -0.971,0.6 2.4,2.4 0 0 1 -0.954,0.2 1.037,1.037 0 0 1 -1.17,-1.178 v -3.217 z m 2.919,0 v 4.282 h -0.6 l -0.07,-0.809 -0.08,-0.132 v -3.341 z"
         id="path18"
         inkscape:connector-curvature="0"
         style="fill:#231f20" />
      <path
         d="m 225.366,78.391 v 0.589 h -2.884 v -0.545 l 0.845,-0.044 z M 224,77.125 V 81.5 a 0.6,0.6 0 0 0 0.132,0.439 0.615,0.615 0 0 0 0.448,0.133 h 0.65 l 0.088,0.571 A 3.177,3.177 0 0 1 225,82.7 c -0.123,0.018 -0.243,0.031 -0.36,0.04 -0.117,0.009 -0.211,0.013 -0.281,0.013 a 1.071,1.071 0 0 1 -0.818,-0.3 1.212,1.212 0 0 1 -0.281,-0.862 v -4.466 z"
         id="path20"
         inkscape:connector-curvature="0"
         style="fill:#231f20" />
      <path
         d="m 226.9,78.391 0.079,0.888 0.052,0.115 v 2.743 l -0.035,0.105 c 0.018,0.164 0.028,0.323 0.03,0.475 0.002,0.152 0,0.313 0,0.483 v 1.24 h -0.748 v -6.049 z m 1.836,-0.105 a 1.209,1.209 0 0 1 1.126,0.575 3.361,3.361 0 0 1 0.343,1.693 3.959,3.959 0 0 1 -0.176,1.314 1.272,1.272 0 0 1 -0.532,0.7 1.771,1.771 0 0 1 -0.91,0.21 3.085,3.085 0 0 1 -0.831,-0.114 3.135,3.135 0 0 1 -0.795,-0.351 l 0.044,-0.449 c 0.275,0.077 0.519,0.14 0.73,0.189 a 2.876,2.876 0 0 0 0.667,0.075 A 1.185,1.185 0 0 0 229,82 a 0.789,0.789 0 0 0 0.33,-0.475 3.453,3.453 0 0 0 0.106,-0.967 3.779,3.779 0 0 0 -0.1,-0.958 0.786,0.786 0 0 0 -0.854,-0.66 1.564,1.564 0 0 0 -0.694,0.168 5.181,5.181 0 0 0 -0.8,0.509 l -0.07,-0.5 a 2.648,2.648 0 0 1 0.536,-0.44 2.675,2.675 0 0 1 0.629,-0.285 2.176,2.176 0 0 1 0.65,-0.106 z"
         id="path22"
         inkscape:connector-curvature="0"
         style="fill:#231f20" />
      <path
         d="M 232.1,78.391 V 81.4 a 0.8,0.8 0 0 0 0.149,0.572 0.7,0.7 0 0 0 0.527,0.167 1.627,1.627 0 0 0 0.717,-0.172 8.112,8.112 0 0 0 0.858,-0.5 l 0.1,0.519 a 4.414,4.414 0 0 1 -0.971,0.6 2.4,2.4 0 0 1 -0.955,0.2 1.037,1.037 0 0 1 -1.169,-1.178 v -3.217 z m 2.919,0 v 4.282 h -0.6 l -0.07,-0.809 -0.08,-0.132 v -3.341 z"
         id="path24"
         inkscape:connector-curvature="0"
         style="fill:#231f20" />
      <path
         d="m 238.827,78.391 v 0.589 h -2.884 v -0.545 l 0.844,-0.044 z m -1.363,-1.266 V 81.5 a 0.6,0.6 0 0 0 0.132,0.439 0.616,0.616 0 0 0 0.449,0.133 h 0.65 l 0.088,0.571 a 3.177,3.177 0 0 1 -0.325,0.061 c -0.123,0.018 -0.243,0.031 -0.36,0.04 -0.117,0.009 -0.212,0.013 -0.283,0.013 a 1.07,1.07 0 0 1 -0.817,-0.3 1.212,1.212 0 0 1 -0.281,-0.862 v -4.47 z"
         id="path26"
         inkscape:connector-curvature="0"
         style="fill:#231f20" />
    </g>
    <g
       id="g42"
       style="display:none">
      <path
         d="m 12.632,53.892 v 6.067 h -0.773 v -6.067 z"
         id="path30"
         inkscape:connector-curvature="0"
         style="fill:#231f20" />
      <path
         d="m 14.716,55.677 0.061,0.818 0.053,0.132 v 3.332 h -0.747 v -4.282 z m 1.969,-0.106 a 1.034,1.034 0 0 1 1.161,1.179 v 3.209 H 17.1 v -3 a 0.936,0.936 0 0 0 -0.141,-0.594 0.6,0.6 0 0 0 -0.475,-0.163 1.787,1.787 0 0 0 -0.791,0.194 q -0.4,0.193 -0.941,0.527 l -0.035,-0.536 a 4.71,4.71 0 0 1 0.994,-0.6 2.411,2.411 0 0 1 0.974,-0.216 z"
         id="path32"
         inkscape:connector-curvature="0"
         style="fill:#231f20" />
      <path
         d="m 19.807,55.677 0.079,0.888 0.053,0.114 v 2.743 l -0.036,0.106 c 0.018,0.164 0.028,0.322 0.031,0.475 0.003,0.153 0,0.313 0,0.483 v 1.24 h -0.748 v -6.049 z m 1.837,-0.106 a 1.208,1.208 0 0 1 1.126,0.576 3.368,3.368 0 0 1 0.342,1.693 3.989,3.989 0 0 1 -0.175,1.314 1.274,1.274 0 0 1 -0.532,0.7 1.761,1.761 0 0 1 -0.91,0.211 3.079,3.079 0 0 1 -0.831,-0.114 3.129,3.129 0 0 1 -0.8,-0.352 l 0.044,-0.448 q 0.414,0.114 0.73,0.189 a 2.891,2.891 0 0 0 0.668,0.075 1.181,1.181 0 0 0 0.6,-0.132 0.791,0.791 0 0 0 0.33,-0.475 3.42,3.42 0 0 0 0.106,-0.967 3.788,3.788 0 0 0 -0.1,-0.959 0.786,0.786 0 0 0 -0.853,-0.659 1.573,1.573 0 0 0 -0.694,0.167 5.229,5.229 0 0 0 -0.8,0.51 l -0.07,-0.5 A 2.583,2.583 0 0 1 20.361,55.96 2.719,2.719 0 0 1 21,55.672 2.21,2.21 0 0 1 21.644,55.571 Z"
         id="path34"
         inkscape:connector-curvature="0"
         style="fill:#231f20" />
      <path
         d="m 25.011,55.677 v 3.007 a 0.8,0.8 0 0 0 0.15,0.572 0.7,0.7 0 0 0 0.527,0.166 1.643,1.643 0 0 0 0.717,-0.171 8.188,8.188 0 0 0 0.857,-0.5 l 0.1,0.519 a 4.4,4.4 0 0 1 -0.972,0.6 2.391,2.391 0 0 1 -0.954,0.2 1.038,1.038 0 0 1 -1.172,-1.17 v -3.223 z m 2.919,0 v 4.282 h -0.6 L 27.259,59.15 27.18,59.018 v -3.341 z"
         id="path36"
         inkscape:connector-curvature="0"
         style="fill:#231f20" />
      <path
         d="m 31.737,55.677 v 0.589 h -2.884 v -0.545 l 0.844,-0.044 z m -1.363,-1.266 v 4.369 a 0.606,0.606 0 0 0 0.132,0.44 0.621,0.621 0 0 0 0.449,0.132 h 0.65 l 0.088,0.571 a 3.211,3.211 0 0 1 -0.325,0.062 c -0.123,0.018 -0.243,0.031 -0.361,0.04 -0.118,0.009 -0.211,0.013 -0.281,0.013 a 1.071,1.071 0 0 1 -0.818,-0.3 1.212,1.212 0 0 1 -0.281,-0.862 v -4.465 z"
         id="path38"
         inkscape:connector-curvature="0"
         style="fill:#231f20" />
      <path
         d="m 36.309,53.787 a 4.513,4.513 0 0 1 1,0.1 1.117,1.117 0 0 1 0.642,0.378 1.325,1.325 0 0 1 0.224,0.836 2.461,2.461 0 0 1 -0.1,0.712 2.632,2.632 0 0 1 -0.339,0.69 7.092,7.092 0 0 1 -0.642,0.8 l -1.74,1.944 c 0.152,-0.012 0.315,-0.021 0.487,-0.027 0.172,-0.006 0.339,-0.009 0.5,-0.009 h 2.057 v 0.748 H 34.41 v -0.484 a 0.617,0.617 0 0 1 0.026,-0.18 0.434,0.434 0 0 1 0.088,-0.154 l 1.759,-1.987 a 6.1,6.1 0 0 0 0.852,-1.108 1.717,1.717 0 0 0 0.255,-0.914 0.628,0.628 0 0 0 -0.145,-0.436 0.715,0.715 0 0 0 -0.387,-0.18 3.567,3.567 0 0 0 -0.6,-0.044 c -0.188,0 -0.366,0 -0.536,0.009 -0.17,0.009 -0.35,0.019 -0.541,0.04 -0.191,0.021 -0.412,0.051 -0.664,0.092 l -0.053,-0.6 c 0.276,-0.064 0.518,-0.113 0.726,-0.145 0.208,-0.032 0.4,-0.054 0.58,-0.066 0.18,-0.012 0.357,-0.015 0.539,-0.015 z"
         id="path40"
         inkscape:connector-curvature="0"
         style="fill:#231f20" />
    </g>
    <g
       id="g56"
       style="display:none">
      <path
         d="m 12.658,76.607 v 6.066 h -0.773 v -6.066 z"
         id="path44"
         inkscape:connector-curvature="0"
         style="fill:#231f20" />
      <path
         d="m 14.742,78.391 0.061,0.818 0.053,0.132 v 3.332 h -0.748 v -4.282 z m 1.969,-0.105 a 1.034,1.034 0 0 1 1.161,1.178 v 3.209 h -0.747 v -3 A 0.925,0.925 0 0 0 16.983,79.08 0.594,0.594 0 0 0 16.509,78.917 1.8,1.8 0 0 0 15.718,79.11 q -0.4,0.194 -0.941,0.528 l -0.035,-0.536 a 4.736,4.736 0 0 1 0.993,-0.6 2.434,2.434 0 0 1 0.976,-0.216 z"
         id="path46"
         inkscape:connector-curvature="0"
         style="fill:#231f20" />
      <path
         d="m 19.833,78.391 0.079,0.888 0.052,0.115 v 2.743 l -0.035,0.105 c 0.018,0.164 0.028,0.323 0.031,0.475 0.003,0.152 0,0.313 0,0.483 v 1.24 h -0.747 v -6.049 z m 1.837,-0.105 a 1.208,1.208 0 0 1 1.125,0.575 3.361,3.361 0 0 1 0.343,1.693 3.959,3.959 0 0 1 -0.176,1.314 1.275,1.275 0 0 1 -0.531,0.7 1.774,1.774 0 0 1 -0.91,0.21 3.074,3.074 0 0 1 -0.831,-0.114 3.126,3.126 0 0 1 -0.8,-0.351 l 0.044,-0.449 c 0.275,0.077 0.519,0.14 0.73,0.189 a 2.891,2.891 0 0 0 0.668,0.075 1.181,1.181 0 0 0 0.6,-0.132 0.789,0.789 0 0 0 0.33,-0.475 3.453,3.453 0 0 0 0.106,-0.967 3.779,3.779 0 0 0 -0.1,-0.958 0.786,0.786 0 0 0 -0.853,-0.66 1.561,1.561 0 0 0 -0.694,0.168 5.136,5.136 0 0 0 -0.8,0.509 l -0.07,-0.5 a 2.648,2.648 0 0 1 0.536,-0.44 2.675,2.675 0 0 1 0.629,-0.285 2.177,2.177 0 0 1 0.654,-0.102 z"
         id="path48"
         inkscape:connector-curvature="0"
         style="fill:#231f20" />
      <path
         d="M 25.037,78.391 V 81.4 a 0.793,0.793 0 0 0 0.15,0.572 0.7,0.7 0 0 0 0.527,0.167 1.634,1.634 0 0 0 0.717,-0.172 8.013,8.013 0 0 0 0.857,-0.5 l 0.1,0.519 a 4.4,4.4 0 0 1 -0.972,0.6 2.391,2.391 0 0 1 -0.954,0.2 1.037,1.037 0 0 1 -1.169,-1.178 v -3.217 z m 2.919,0 v 4.282 h -0.6 l -0.07,-0.809 -0.079,-0.132 v -3.341 z"
         id="path50"
         inkscape:connector-curvature="0"
         style="fill:#231f20" />
      <path
         d="m 31.763,78.391 v 0.589 h -2.884 v -0.545 l 0.844,-0.044 z M 30.4,77.125 V 81.5 a 0.6,0.6 0 0 0 0.132,0.439 0.616,0.616 0 0 0 0.449,0.133 h 0.65 l 0.088,0.571 a 3.23,3.23 0 0 1 -0.325,0.061 c -0.123,0.018 -0.244,0.031 -0.361,0.04 -0.117,0.009 -0.211,0.013 -0.281,0.013 a 1.071,1.071 0 0 1 -0.818,-0.3 1.212,1.212 0 0 1 -0.281,-0.862 v -4.47 z"
         id="path52"
         inkscape:connector-curvature="0"
         style="fill:#231f20" />
      <path
         d="m 36.221,76.492 a 3.707,3.707 0 0 1 1.076,0.128 1.047,1.047 0 0 1 0.6,0.435 1.579,1.579 0 0 1 0.193,0.844 2.946,2.946 0 0 1 -0.079,0.708 1.25,1.25 0 0 1 -0.268,0.536 0.935,0.935 0 0 1 -0.541,0.286 v 0.035 a 1.065,1.065 0 0 1 0.822,0.5 2.138,2.138 0 0 1 0.233,1.024 2.351,2.351 0 0 1 -0.172,1.012 1.194,1.194 0 0 1 -0.607,0.593 2.792,2.792 0 0 1 -1.143,0.193 c -0.323,0 -0.646,-0.016 -0.972,-0.048 -0.326,-0.032 -0.643,-0.069 -0.954,-0.11 l 0.053,-0.624 c 0.2,0.018 0.392,0.034 0.576,0.048 0.184,0.014 0.368,0.025 0.549,0.031 0.181,0.006 0.367,0.009 0.554,0.009 a 2.307,2.307 0 0 0 0.787,-0.11 0.764,0.764 0 0 0 0.431,-0.374 1.537,1.537 0 0 0 0.136,-0.7 1.7,1.7 0 0 0 -0.092,-0.585 0.727,0.727 0 0 0 -0.352,-0.391 1.628,1.628 0 0 0 -0.76,-0.141 h -1.125 v -0.606 h 1.125 a 1.42,1.42 0 0 0 0.576,-0.1 0.749,0.749 0 0 0 0.321,-0.251 0.851,0.851 0 0 0 0.136,-0.351 2.733,2.733 0 0 0 0.031,-0.409 1.2,1.2 0 0 0 -0.123,-0.576 0.587,0.587 0 0 0 -0.383,-0.255 3.209,3.209 0 0 0 -0.734,-0.066 q -0.431,0 -0.831,0.022 c -0.266,0.014 -0.5,0.031 -0.708,0.048 l -0.061,-0.6 q 0.448,-0.079 0.866,-0.119 c 0.278,-0.022 0.558,-0.036 0.84,-0.036 z"
         id="path54"
         inkscape:connector-curvature="0"
         style="fill:#231f20" />
    </g>
    <g
       id="g70"
       style="display:none">
      <path
         d="m 12.4,99.412 v 6.066 h -0.773 v -6.066 z"
         id="path58"
         inkscape:connector-curvature="0"
         style="fill:#231f20" />
      <path
         d="m 14.482,101.2 0.062,0.818 0.053,0.132 v 3.332 H 13.849 V 101.2 Z m 1.97,-0.105 a 1.033,1.033 0 0 1 1.16,1.178 v 3.209 h -0.747 v -3 a 0.926,0.926 0 0 0 -0.141,-0.593 0.6,0.6 0 0 0 -0.474,-0.163 1.784,1.784 0 0 0 -0.791,0.194 q -0.4,0.193 -0.941,0.527 l -0.036,-0.536 a 4.785,4.785 0 0 1 0.994,-0.6 2.427,2.427 0 0 1 0.976,-0.22 z"
         id="path60"
         inkscape:connector-curvature="0"
         style="fill:#231f20" />
      <path
         d="m 19.573,101.2 0.079,0.889 0.053,0.114 v 2.743 l -0.035,0.105 c 0.018,0.165 0.028,0.323 0.031,0.475 0.003,0.152 0,0.314 0,0.484 v 1.239 H 18.954 V 101.2 Z m 1.838,-0.105 a 1.207,1.207 0 0 1 1.125,0.576 3.356,3.356 0 0 1 0.343,1.693 3.983,3.983 0 0 1 -0.176,1.313 1.272,1.272 0 0 1 -0.532,0.7 1.771,1.771 0 0 1 -0.91,0.211 3.047,3.047 0 0 1 -0.831,-0.115 3.135,3.135 0 0 1 -0.795,-0.351 l 0.044,-0.449 q 0.413,0.115 0.729,0.19 a 2.956,2.956 0 0 0 0.669,0.074 1.184,1.184 0 0 0 0.6,-0.132 0.789,0.789 0 0 0 0.33,-0.475 3.451,3.451 0 0 0 0.105,-0.966 3.789,3.789 0 0 0 -0.1,-0.959 0.788,0.788 0 0 0 -0.853,-0.66 1.565,1.565 0 0 0 -0.7,0.168 5.075,5.075 0 0 0 -0.8,0.51 l -0.07,-0.5 a 2.583,2.583 0 0 1 0.536,-0.44 2.678,2.678 0 0 1 0.629,-0.286 2.2,2.2 0 0 1 0.657,-0.106 z"
         id="path62"
         inkscape:connector-curvature="0"
         style="fill:#231f20" />
      <path
         d="m 24.778,101.2 v 3 a 0.8,0.8 0 0 0 0.149,0.572 0.707,0.707 0 0 0 0.528,0.167 1.639,1.639 0 0 0 0.716,-0.171 8.371,8.371 0 0 0 0.858,-0.5 l 0.1,0.519 a 4.412,4.412 0 0 1 -0.972,0.6 2.4,2.4 0 0 1 -0.954,0.2 1.037,1.037 0 0 1 -1.17,-1.178 V 101.2 Z m 2.919,0 v 4.282 h -0.6 l -0.07,-0.809 -0.08,-0.132 V 101.2 Z"
         id="path64"
         inkscape:connector-curvature="0"
         style="fill:#231f20" />
      <path
         d="m 31.5,101.2 v 0.589 h -2.88 v -0.545 l 0.844,-0.044 z m -1.359,-1.27 v 4.37 a 0.6,0.6 0 0 0 0.132,0.439 0.614,0.614 0 0 0 0.448,0.133 h 0.651 l 0.088,0.571 c -0.094,0.023 -0.2,0.044 -0.326,0.062 -0.126,0.018 -0.243,0.03 -0.36,0.039 -0.117,0.009 -0.211,0.013 -0.282,0.013 a 1.065,1.065 0 0 1 -0.817,-0.3 1.207,1.207 0 0 1 -0.281,-0.861 V 99.93 Z"
         id="path66"
         inkscape:connector-curvature="0"
         style="fill:#231f20" />
      <path
         d="M 36.594,99.412 34.9,103 c -0.053,0.117 -0.055,0.206 -0.005,0.268 a 0.271,0.271 0 0 0 0.224,0.093 h 3.6 v 0.553 l -0.809,0.079 h -3.223 a 0.623,0.623 0 0 1 -0.414,-0.14 0.637,0.637 0 0 1 -0.215,-0.361 0.7,0.7 0 0 1 0.048,-0.44 l 1.723,-3.639 z m 1.337,1.16 v 4.906 H 37.2 v -3.9 l 0.132,-1 z"
         id="path68"
         inkscape:connector-curvature="0"
         style="fill:#231f20" />
    </g>
    <g
       id="g84"
       style="display:none">
      <path
         d="m 12.747,122.58 v 6.067 h -0.774 v -6.067 z"
         id="path72"
         inkscape:connector-curvature="0"
         style="fill:#231f20" />
      <path
         d="m 14.83,124.365 0.062,0.818 0.052,0.132 v 3.332 H 14.2 v -4.282 z m 1.969,-0.106 a 1.034,1.034 0 0 1 1.161,1.179 v 3.209 h -0.747 v -3 a 0.929,0.929 0 0 0 -0.141,-0.594 0.6,0.6 0 0 0 -0.475,-0.163 1.79,1.79 0 0 0 -0.791,0.194 q -0.4,0.194 -0.941,0.527 l -0.035,-0.536 a 4.71,4.71 0 0 1 0.994,-0.6 2.411,2.411 0 0 1 0.976,-0.216 z"
         id="path74"
         inkscape:connector-curvature="0"
         style="fill:#231f20" />
      <path
         d="m 19.921,124.365 0.079,0.888 0.053,0.114 v 2.743 l -0.035,0.106 c 0.017,0.164 0.027,0.322 0.03,0.475 0.003,0.153 0.005,0.313 0.005,0.483 v 1.24 h -0.748 v -6.049 z m 1.837,-0.106 a 1.208,1.208 0 0 1 1.126,0.576 3.367,3.367 0 0 1 0.343,1.693 3.986,3.986 0 0 1 -0.176,1.314 1.27,1.27 0 0 1 -0.532,0.7 1.761,1.761 0 0 1 -0.91,0.211 3.085,3.085 0 0 1 -0.831,-0.114 3.129,3.129 0 0 1 -0.8,-0.352 l 0.044,-0.448 q 0.414,0.114 0.73,0.189 a 2.891,2.891 0 0 0 0.668,0.075 1.181,1.181 0 0 0 0.6,-0.132 0.8,0.8 0 0 0 0.331,-0.475 3.464,3.464 0 0 0 0.105,-0.967 3.742,3.742 0 0 0 -0.1,-0.959 0.784,0.784 0 0 0 -0.853,-0.659 1.573,1.573 0 0 0 -0.694,0.167 5.178,5.178 0 0 0 -0.8,0.51 l -0.071,-0.5 a 2.609,2.609 0 0 1 0.536,-0.44 2.758,2.758 0 0 1 0.629,-0.286 2.21,2.21 0 0 1 0.655,-0.103 z"
         id="path76"
         inkscape:connector-curvature="0"
         style="fill:#231f20" />
      <path
         d="m 25.126,124.365 v 3.007 a 0.792,0.792 0 0 0 0.149,0.571 0.7,0.7 0 0 0 0.527,0.167 1.64,1.64 0 0 0 0.717,-0.171 8.292,8.292 0 0 0 0.858,-0.5 l 0.1,0.519 a 4.391,4.391 0 0 1 -0.971,0.6 2.413,2.413 0 0 1 -0.955,0.2 1.038,1.038 0 0 1 -1.169,-1.178 v -3.218 z m 2.918,0 v 4.282 h -0.6 l -0.07,-0.809 -0.08,-0.132 v -3.341 z"
         id="path78"
         inkscape:connector-curvature="0"
         style="fill:#231f20" />
      <path
         d="m 31.851,124.365 v 0.589 h -2.884 v -0.545 l 0.845,-0.044 z M 30.488,123.1 v 4.369 a 0.606,0.606 0 0 0 0.132,0.44 0.621,0.621 0 0 0 0.449,0.132 h 0.65 l 0.088,0.571 a 3.211,3.211 0 0 1 -0.325,0.062 c -0.123,0.018 -0.243,0.031 -0.36,0.04 -0.117,0.009 -0.212,0.013 -0.282,0.013 a 1.067,1.067 0 0 1 -0.817,-0.3 1.208,1.208 0 0 1 -0.282,-0.862 V 123.1 Z"
         id="path80"
         inkscape:connector-curvature="0"
         style="fill:#231f20" />
      <path
         d="m 38.085,122.58 -0.035,0.659 H 35.5 l -0.088,1.653 0.651,0.053 a 5.389,5.389 0 0 1 1.015,0.159 1.777,1.777 0 0 1 0.682,0.334 1.24,1.24 0 0 1 0.382,0.558 2.532,2.532 0 0 1 0.119,0.831 3.326,3.326 0 0 1 -0.075,0.712 1.549,1.549 0 0 1 -0.281,0.615 1.4,1.4 0 0 1 -0.594,0.435 2.631,2.631 0 0 1 -1.011,0.163 7.469,7.469 0 0 1 -0.835,-0.053 8.129,8.129 0 0 1 -0.967,-0.167 l 0.088,-0.624 c 0.275,0.047 0.551,0.085 0.826,0.115 a 6.967,6.967 0 0 0 0.712,0.044 2.036,2.036 0 0 0 0.871,-0.145 0.775,0.775 0 0 0 0.4,-0.423 1.982,1.982 0 0 0 0.114,-0.672 1.545,1.545 0 0 0 -0.1,-0.664 0.725,0.725 0 0 0 -0.351,-0.361 2.052,2.052 0 0 0 -0.642,-0.167 q -0.4,-0.048 -0.98,-0.083 l -0.405,-0.026 a 0.345,0.345 0 0 1 -0.215,-0.11 0.3,0.3 0 0 1 -0.075,-0.233 l 0.141,-2.6 z"
         id="path82"
         inkscape:connector-curvature="0"
         style="fill:#231f20" />
    </g>
    <circle
       cx="51.362999"
       cy="42.629002"
       r="8.2989998"
       stroke-miterlimit="10"
       id="circle162"
       style="fill:none;stroke:#231f20;stroke-width:0.75;stroke-miterlimit:10" />
    <circle
       cx="51.362999"
       cy="65.399002"
       r="8.2989998"
       stroke-miterlimit="10"
       id="circle164"
       style="fill:none;stroke:#231f20;stroke-width:0.75;stroke-miterlimit:10" />
    <circle
       cx="125.496"
       cy="53.334"
       r="8.2989998"
       stroke-miterlimit="10"
       id="circle166"
       style="fill:none;stroke:#231f20;stroke-width:0.75;stroke-miterlimit:10" />
    <circle
       cx="125.496"
       cy="88.167999"
       r="8.2989998"
       stroke-miterlimit="10"
       id="circle168"
       style="fill:none;stroke:#231f20;stroke-width:0.75;stroke-miterlimit:10" />
    <circle
       cx="198.839"
       cy="88.167999"
       r="8.2989998"
       stroke-miterlimit="10"
       id="circle170"
       style="fill:none;stroke:#231f20;stroke-width:0.75;stroke-miterlimit:10" />
    <circle
       cx="125.496"
       cy="122.347"
       r="8.2989998"
       stroke-miterlimit="10"
       id="circle172"
       style="fill:none;stroke:#231f20;stroke-width:0.75;stroke-miterlimit:10" />
    <circle
       cx="51.362999"
       cy="88.167999"
       r="8.2989998"
       stroke-miterlimit="10"
       id="circle174"
       style="fill:none;stroke:#231f20;stroke-width:0.75;stroke-miterlimit:10" />
    <circle
       cx="51.362999"
       cy="110.938"
       r="8.2989998"
       stroke-miterlimit="10"
       id="circle176"
       style="fill:none;stroke:#231f20;stroke-width:0.75;stroke-miterlimit:10" />
    <circle
       cx="51.362999"
       cy="133.707"
       r="8.2989998"
       stroke-miterlimit="10"
       id="circle178"
       style="fill:none;stroke:#231f20;stroke-width:0.75;stroke-miterlimit:10" />
    <g
       id="g190">
      <line
         x1="26.4"
         y1="42.629002"
         x2="40.800999"
         y2="42.629002"
         stroke-miterlimit="10"
         id="line180"
         style="fill:none;stroke:#231f20;stroke-width:0.75;stroke-miterlimit:10" />
      <g
         id="g186">
        <path
           d="m 26.48,44.039 a 1.41,1.41 0 1 1 1.41,-1.41 1.411,1.411 0 0 1 -1.41,1.41 z"
           id="path182"
           inkscape:connector-curvature="0"
           style="fill:#ffffff" />
        <path
           d="m 26.48,44.226 a 1.6,1.6 0 1 0 -1.6,-1.6 1.6,1.6 0 0 0 1.6,1.6 z m 0,-2.819 a 1.222,1.222 0 1 1 -1.222,1.222 1.224,1.224 0 0 1 1.222,-1.222 z"
           id="path184"
           inkscape:connector-curvature="0"
           style="fill:#231f20" />
      </g>
      <path
         d="m 43.064,42.629 a 11.328,11.328 0 0 0 -3.2,1.783 l 0.645,-1.783 -0.645,-1.783 a 11.328,11.328 0 0 0 3.2,1.783 z"
         id="path188"
         inkscape:connector-curvature="0"
         style="fill:#231f20" />
    </g>
    <g
       id="g196">
      <line
         x1="207.13901"
         y1="88.167999"
         x2="228.881"
         y2="88.167999"
         stroke-miterlimit="10"
         id="line192"
         style="fill:none;stroke:#231f20;stroke-width:0.75;stroke-miterlimit:10" />
      <path
         d="m 231.144,88.168 a 11.331,11.331 0 0 0 -3.205,1.784 l 0.645,-1.784 -0.645,-1.783 a 11.328,11.328 0 0 0 3.205,1.783 z"
         id="path194"
         inkscape:connector-curvature="0"
         style="fill:#231f20" />
    </g>
    <g
       id="g202">
      <line
         x1="59.662998"
         y1="42.629002"
         x2="114.962"
         y2="51.513"
         stroke-miterlimit="10"
         id="line198"
         style="fill:none;stroke:#231f20;stroke-width:0.75;stroke-miterlimit:10" />
      <path
         d="m 117.2,51.872 a 11.326,11.326 0 0 0 -3.448,1.252 l 0.92,-1.658 -0.354,-1.863 a 11.321,11.321 0 0 0 2.882,2.269 z"
         id="path200"
         inkscape:connector-curvature="0"
         style="fill:#231f20" />
    </g>
    <g
       id="g208">
      <line
         x1="59.662998"
         y1="64.387001"
         x2="114.967"
         y2="54.763"
         stroke-miterlimit="10"
         id="line204"
         style="fill:none;stroke:#231f20;stroke-width:0.75;stroke-miterlimit:10" />
      <path
         d="m 117.2,54.375 a 11.314,11.314 0 0 0 -2.852,2.306 l 0.329,-1.867 -0.941,-1.646 a 11.315,11.315 0 0 0 3.464,1.207 z"
         id="path206"
         inkscape:connector-curvature="0"
         style="fill:#231f20" />
    </g>
    <g
       id="g214">
      <line
         x1="59.519001"
         y1="67.343002"
         x2="115.213"
         y2="85.072998"
         stroke-miterlimit="10"
         id="line210"
         style="fill:none;stroke:#231f20;stroke-width:0.75;stroke-miterlimit:10" />
      <path
         d="m 117.37,85.76 a 11.328,11.328 0 0 0 -3.6,0.727 l 1.156,-1.5 -0.074,-1.9 a 11.327,11.327 0 0 0 2.518,2.673 z"
         id="path212"
         inkscape:connector-curvature="0"
         style="fill:#231f20" />
    </g>
    <g
       id="g220">
      <line
         x1="58.261002"
         y1="70.014"
         x2="117.604"
         y2="114.732"
         stroke-miterlimit="10"
         id="line216"
         style="fill:none;stroke:#231f20;stroke-width:0.75;stroke-miterlimit:10" />
      <path
         d="m 119.411,116.094 a 11.3,11.3 0 0 0 -3.633,-0.5 l 1.588,-1.036 0.558,-1.812 a 11.35,11.35 0 0 0 1.487,3.348 z"
         id="path218"
         inkscape:connector-curvature="0"
         style="fill:#231f20" />
    </g>
    <g
       id="g226">
      <line
         x1="58.902"
         y1="84.712997"
         x2="115.646"
         y2="57.858002"
         stroke-miterlimit="10"
         id="line222"
         style="fill:none;stroke:#231f20;stroke-width:0.75;stroke-miterlimit:10" />
      <path
         d="m 117.692,56.89 a 11.343,11.343 0 0 0 -2.134,2.983 l -0.18,-1.888 -1.346,-1.335 a 11.32,11.32 0 0 0 3.66,0.24 z"
         id="path224"
         inkscape:connector-curvature="0"
         style="fill:#231f20" />
    </g>
    <g
       id="g232">
      <line
         x1="59.662998"
         y1="88.167999"
         x2="114.933"
         y2="88.167999"
         stroke-miterlimit="10"
         id="line228"
         style="fill:none;stroke:#231f20;stroke-width:0.75;stroke-miterlimit:10" />
      <path
         d="m 117.2,88.168 a 11.337,11.337 0 0 0 -3.206,1.784 l 0.645,-1.784 -0.645,-1.783 a 11.334,11.334 0 0 0 3.206,1.783 z"
         id="path230"
         inkscape:connector-curvature="0"
         style="fill:#231f20" />
    </g>
    <g
       id="g238">
      <line
         x1="58.674"
         y1="91.320999"
         x2="116.099"
         y2="117.022"
         stroke-miterlimit="10"
         id="line234"
         style="fill:none;stroke:#231f20;stroke-width:0.75;stroke-miterlimit:10" />
      <path
         d="m 118.165,117.947 a 11.321,11.321 0 0 0 -3.654,0.318 l 1.317,-1.364 0.14,-1.891 a 11.338,11.338 0 0 0 2.197,2.937 z"
         id="path236"
         inkscape:connector-curvature="0"
         style="fill:#231f20" />
    </g>
    <g
       id="g244">
      <line
         x1="58.127998"
         y1="105.986"
         x2="117.424"
         y2="60.480999"
         stroke-miterlimit="10"
         id="line240"
         style="fill:none;stroke:#231f20;stroke-width:0.75;stroke-miterlimit:10" />
      <path
         d="m 119.219,59.1 a 11.337,11.337 0 0 0 -1.457,3.367 l -0.574,-1.808 -1.6,-1.022 a 11.292,11.292 0 0 0 3.631,-0.537 z"
         id="path242"
         inkscape:connector-curvature="0"
         style="fill:#231f20" />
    </g>
    <g
       id="g250">
      <line
         x1="59.423"
         y1="108.43"
         x2="115.035"
         y2="91.188004"
         stroke-miterlimit="10"
         id="line246"
         style="fill:none;stroke:#231f20;stroke-width:0.75;stroke-miterlimit:10" />
      <path
         d="m 117.2,90.518 a 11.321,11.321 0 0 0 -2.534,2.653 l 0.088,-1.9 -1.144,-1.512 a 11.323,11.323 0 0 0 3.59,0.759 z"
         id="path248"
         inkscape:connector-curvature="0"
         style="fill:#231f20" />
    </g>
    <g
       id="g256">
      <line
         x1="59.662998"
         y1="110.938"
         x2="114.963"
         y2="119.972"
         stroke-miterlimit="10"
         id="line252"
         style="fill:none;stroke:#231f20;stroke-width:0.75;stroke-miterlimit:10" />
      <path
         d="m 117.2,120.337 a 11.338,11.338 0 0 0 -3.451,1.243 l 0.924,-1.656 -0.349,-1.864 a 11.3,11.3 0 0 0 2.876,2.277 z"
         id="path254"
         inkscape:connector-curvature="0"
         style="fill:#231f20" />
    </g>
    <g
       id="g262">
      <line
         x1="57.039001"
         y1="127.321"
         x2="119.735"
         y2="62.48"
         stroke-miterlimit="10"
         id="line258"
         style="fill:none;stroke:#231f20;stroke-width:0.75;stroke-miterlimit:10" />
      <path
         d="m 121.308,60.853 a 11.347,11.347 0 0 0 -0.946,3.544 l -0.833,-1.7 -1.731,-0.776 a 11.288,11.288 0 0 0 3.51,-1.068 z"
         id="path260"
         inkscape:connector-curvature="0"
         style="fill:#231f20" />
    </g>
    <g
       id="g268">
      <line
         x1="58.333"
         y1="129.67101"
         x2="116.385"
         y2="94.233002"
         stroke-miterlimit="10"
         id="line264"
         style="fill:none;stroke:#231f20;stroke-width:0.75;stroke-miterlimit:10" />
      <path
         d="m 118.317,93.054 a 11.333,11.333 0 0 0 -1.806,3.192 l -0.379,-1.858 -1.48,-1.186 a 11.316,11.316 0 0 0 3.665,-0.148 z"
         id="path266"
         inkscape:connector-curvature="0"
         style="fill:#231f20" />
    </g>
    <g
       id="g274">
      <line
         x1="59.662998"
         y1="132.10899"
         x2="114.701"
         y2="122.972"
         stroke-miterlimit="10"
         id="line270"
         style="fill:none;stroke:#231f20;stroke-width:0.75;stroke-miterlimit:10" />
      <path
         d="m 116.934,122.6 a 11.341,11.341 0 0 0 -2.87,2.285 l 0.344,-1.865 -0.928,-1.654 a 11.307,11.307 0 0 0 3.454,1.234 z"
         id="path272"
         inkscape:connector-curvature="0"
         style="fill:#231f20" />
    </g>
    <g
       id="g280">
      <line
         x1="59.006001"
         y1="45.870998"
         x2="116.709"
         y2="81.932999"
         stroke-miterlimit="10"
         id="line276"
         style="fill:none;stroke:#231f20;stroke-width:0.75;stroke-miterlimit:10" />
      <path
         d="m 118.628,83.133 a 11.333,11.333 0 0 0 -3.664,-0.187 l 1.493,-1.17 0.4,-1.854 a 11.311,11.311 0 0 0 1.771,3.211 z"
         id="path278"
         inkscape:connector-curvature="0"
         style="fill:#231f20" />
    </g>
    <g
       id="g286">
      <line
         x1="57.111"
         y1="48.617001"
         x2="119.876"
         y2="113.163"
         stroke-miterlimit="10"
         id="line282"
         style="fill:none;stroke:#231f20;stroke-width:0.75;stroke-miterlimit:10" />
      <path
         d="m 121.454,114.786 a 11.353,11.353 0 0 0 -3.513,-1.055 l 1.728,-0.78 0.829,-1.706 a 11.335,11.335 0 0 0 0.956,3.541 z"
         id="path284"
         inkscape:connector-curvature="0"
         style="fill:#231f20" />
    </g>
    <g
       id="g292">
      <line
         x1="132.73199"
         y1="57.195999"
         x2="188.991"
         y2="83.612"
         stroke-miterlimit="10"
         id="line288"
         style="fill:none;stroke:#231f20;stroke-width:0.75;stroke-miterlimit:10" />
      <path
         d="m 191.039,84.574 a 11.31,11.31 0 0 0 -3.659,0.252 l 1.342,-1.34 0.178,-1.886 a 11.324,11.324 0 0 0 2.139,2.974 z"
         id="path290"
         inkscape:connector-curvature="0"
         style="fill:#231f20" />
    </g>
    <g
       id="g298">
      <line
         x1="133.79601"
         y1="88.167999"
         x2="188.276"
         y2="88.167999"
         stroke-miterlimit="10"
         id="line294"
         style="fill:none;stroke:#231f20;stroke-width:0.75;stroke-miterlimit:10" />
      <path
         d="m 190.54,88.168 a 11.337,11.337 0 0 0 -3.206,1.784 l 0.645,-1.784 -0.645,-1.783 a 11.334,11.334 0 0 0 3.206,1.783 z"
         id="path296"
         inkscape:connector-curvature="0"
         style="fill:#231f20" />
    </g>
    <g
       id="g304">
      <line
         x1="133.063"
         y1="118.949"
         x2="188.978"
         y2="92.621002"
         stroke-miterlimit="10"
         id="line300"
         style="fill:none;stroke:#231f20;stroke-width:0.75;stroke-miterlimit:10" />
      <path
         d="m 191.026,91.657 a 11.315,11.315 0 0 0 -2.14,2.979 l -0.177,-1.888 -1.343,-1.339 a 11.344,11.344 0 0 0 3.66,0.248 z"
         id="path302"
         inkscape:connector-curvature="0"
         style="fill:#231f20" />
    </g>
    <g
       id="g316">
      <line
         x1="26.4"
         y1="65.399002"
         x2="40.800999"
         y2="65.399002"
         stroke-miterlimit="10"
         id="line306"
         style="fill:none;stroke:#231f20;stroke-width:0.75;stroke-miterlimit:10" />
      <g
         id="g312">
        <path
           d="M 26.48,66.808 A 1.41,1.41 0 1 1 27.89,65.4 1.41,1.41 0 0 1 26.48,66.808 Z"
           id="path308"
           inkscape:connector-curvature="0"
           style="fill:#ffffff" />
        <path
           d="m 26.48,67 a 1.6,1.6 0 1 0 -1.6,-1.6 1.6,1.6 0 0 0 1.6,1.6 z m 0,-2.82 a 1.223,1.223 0 1 1 -1.222,1.22 1.224,1.224 0 0 1 1.222,-1.223 z"
           id="path310"
           inkscape:connector-curvature="0"
           style="fill:#231f20" />
      </g>
      <path
         d="m 43.064,65.4 a 11.328,11.328 0 0 0 -3.2,1.783 L 40.5,65.4 39.855,63.616 a 11.307,11.307 0 0 0 3.209,1.784 z"
         id="path314"
         inkscape:connector-curvature="0"
         style="fill:#231f20" />
    </g>
    <g
       id="g328">
      <line
         x1="26.4"
         y1="88.167999"
         x2="40.800999"
         y2="88.167999"
         stroke-miterlimit="10"
         id="line318"
         style="fill:none;stroke:#231f20;stroke-width:0.75;stroke-miterlimit:10" />
      <g
         id="g324">
        <path
           d="m 26.48,89.578 a 1.41,1.41 0 1 1 1.41,-1.41 1.41,1.41 0 0 1 -1.41,1.41 z"
           id="path320"
           inkscape:connector-curvature="0"
           style="fill:#ffffff" />
        <path
           d="m 26.48,89.766 a 1.6,1.6 0 1 0 -1.6,-1.6 1.6,1.6 0 0 0 1.6,1.6 z m 0,-2.82 a 1.223,1.223 0 1 1 -1.222,1.222 1.224,1.224 0 0 1 1.222,-1.222 z"
           id="path322"
           inkscape:connector-curvature="0"
           style="fill:#231f20" />
      </g>
      <path
         d="m 43.064,88.168 a 11.307,11.307 0 0 0 -3.2,1.784 l 0.645,-1.784 -0.645,-1.783 a 11.328,11.328 0 0 0 3.2,1.783 z"
         id="path326"
         inkscape:connector-curvature="0"
         style="fill:#231f20" />
    </g>
    <g
       id="g340">
      <line
         x1="26.4"
         y1="110.938"
         x2="40.800999"
         y2="110.938"
         stroke-miterlimit="10"
         id="line330"
         style="fill:none;stroke:#231f20;stroke-width:0.75;stroke-miterlimit:10" />
      <g
         id="g336">
        <path
           d="m 26.48,112.348 a 1.41,1.41 0 1 1 1.41,-1.41 1.411,1.411 0 0 1 -1.41,1.41 z"
           id="path332"
           inkscape:connector-curvature="0"
           style="fill:#ffffff" />
        <path
           d="m 26.48,112.535 a 1.6,1.6 0 1 0 -1.6,-1.6 1.6,1.6 0 0 0 1.6,1.6 z m 0,-2.82 a 1.223,1.223 0 1 1 -1.222,1.223 1.225,1.225 0 0 1 1.222,-1.223 z"
           id="path334"
           inkscape:connector-curvature="0"
           style="fill:#231f20" />
      </g>
      <path
         d="m 43.064,110.938 a 11.328,11.328 0 0 0 -3.2,1.783 l 0.645,-1.783 -0.645,-1.783 a 11.328,11.328 0 0 0 3.2,1.783 z"
         id="path338"
         inkscape:connector-curvature="0"
         style="fill:#231f20" />
    </g>
    <g
       id="g352">
      <line
         x1="26.4"
         y1="133.707"
         x2="40.800999"
         y2="133.707"
         stroke-miterlimit="10"
         id="line342"
         style="fill:none;stroke:#231f20;stroke-width:0.75;stroke-miterlimit:10" />
      <g
         id="g348">
        <path
           d="m 26.48,135.117 a 1.41,1.41 0 1 1 1.41,-1.41 1.41,1.41 0 0 1 -1.41,1.41 z"
           id="path344"
           inkscape:connector-curvature="0"
           style="fill:#ffffff" />
        <path
           d="m 26.48,135.305 a 1.6,1.6 0 1 0 -1.6,-1.6 1.6,1.6 0 0 0 1.6,1.6 z m 0,-2.82 a 1.223,1.223 0 1 1 -1.222,1.222 1.224,1.224 0 0 1 1.222,-1.222 z"
           id="path346"
           inkscape:connector-curvature="0"
           style="fill:#231f20" />
      </g>
      <path
         d="m 43.064,133.707 a 11.356,11.356 0 0 0 -3.2,1.784 l 0.645,-1.784 -0.645,-1.783 a 11.3,11.3 0 0 0 3.2,1.783 z"
         id="path350"
         inkscape:connector-curvature="0"
         style="fill:#231f20" />
    </g>
    <g
       aria-label="Invoerlaag"
       style="font-style:normal;font-weight:normal;font-size:8px;line-height:1.25;font-family:sans-serif;letter-spacing:0px;word-spacing:0px;fill:#000000;fill-opacity:1;stroke:none"
       id="text4443">
      <path
         d="m 30.211344,8.8243637 h 0.789062 v 5.8320313 h -0.789062 z"
         id="path4499"
         inkscape:connector-curvature="0" />
      <path
         d="m 36.176188,12.01577 v 2.640625 h -0.71875 v -2.617188 q 0,-0.621093 -0.242188,-0.929687 -0.242187,-0.308594 -0.726562,-0.308594 -0.582032,0 -0.917969,0.371094 -0.335938,0.371094 -0.335938,1.011719 v 2.472656 h -0.722656 v -4.375 h 0.722656 v 0.679687 q 0.257813,-0.394531 0.605469,-0.589843 0.351563,-0.195313 0.808594,-0.195313 0.753906,0 1.140625,0.46875 0.386719,0.464844 0.386719,1.371094 z"
         id="path4501"
         inkscape:connector-curvature="0" />
      <path
         d="m 37.094156,10.281395 h 0.761719 l 1.367188,3.671875 1.367187,-3.671875 h 0.761719 l -1.640625,4.375 h -0.976563 z"
         id="path4503"
         inkscape:connector-curvature="0" />
      <path
         d="m 44.039469,10.785301 q -0.578125,0 -0.914063,0.453125 -0.335937,0.449219 -0.335937,1.234375 0,0.785156 0.332031,1.238281 0.335938,0.449219 0.917969,0.449219 0.574219,0 0.910156,-0.453125 0.335938,-0.453125 0.335938,-1.234375 0,-0.777344 -0.335938,-1.230469 -0.335937,-0.457031 -0.910156,-0.457031 z m 0,-0.609375 q 0.9375,0 1.472656,0.609375 0.535156,0.609375 0.535156,1.6875 0,1.074219 -0.535156,1.6875 -0.535156,0.609375 -1.472656,0.609375 -0.941406,0 -1.476563,-0.609375 -0.53125,-0.613281 -0.53125,-1.6875 0,-1.078125 0.53125,-1.6875 0.535157,-0.609375 1.476563,-0.609375 z"
         id="path4505"
         inkscape:connector-curvature="0" />
      <path
         d="m 50.980875,12.289207 v 0.351563 h -3.304687 q 0.04687,0.742187 0.445312,1.132812 0.402344,0.386719 1.117188,0.386719 0.414062,0 0.800781,-0.101562 0.390625,-0.101563 0.773437,-0.304688 v 0.679688 q -0.386718,0.164062 -0.792968,0.25 -0.40625,0.08594 -0.824219,0.08594 -1.046875,0 -1.660156,-0.609375 -0.609375,-0.609375 -0.609375,-1.648437 0,-1.074219 0.578125,-1.703125 0.582031,-0.632813 1.566406,-0.632813 0.882812,0 1.394531,0.570313 0.515625,0.566406 0.515625,1.542968 z m -0.71875,-0.210937 q -0.0078,-0.589844 -0.332031,-0.941406 -0.320313,-0.351563 -0.851563,-0.351563 -0.601562,0 -0.964843,0.339844 -0.359375,0.339844 -0.414063,0.957031 z"
         id="path4507"
         inkscape:connector-curvature="0" />
      <path
         d="m 54.695719,10.95327 q -0.121094,-0.07031 -0.265625,-0.101563 -0.140625,-0.03516 -0.3125,-0.03516 -0.609375,0 -0.9375,0.398438 -0.324219,0.394531 -0.324219,1.136718 v 2.304688 h -0.722656 v -4.375 h 0.722656 v 0.679687 q 0.226563,-0.398437 0.589844,-0.589843 0.363281,-0.195313 0.882812,-0.195313 0.07422,0 0.164063,0.01172 0.08984,0.0078 0.199219,0.02734 z"
         id="path4509"
         inkscape:connector-curvature="0" />
      <path
         d="m 55.449625,8.57827 h 0.71875 v 6.078125 h -0.71875 z"
         id="path4511"
         inkscape:connector-curvature="0" />
      <path
         d="m 59.660563,12.457176 q -0.871094,0 -1.207032,0.199219 -0.335937,0.199219 -0.335937,0.679687 0,0.382813 0.25,0.609375 0.253906,0.222657 0.6875,0.222657 0.597656,0 0.957031,-0.421875 0.363281,-0.425782 0.363281,-1.128907 v -0.160156 z m 1.433593,-0.296875 v 2.496094 h -0.71875 v -0.664063 q -0.246093,0.398438 -0.613281,0.589844 -0.367187,0.1875 -0.898437,0.1875 -0.671875,0 -1.070313,-0.375 -0.394531,-0.378906 -0.394531,-1.011719 0,-0.738281 0.492187,-1.113281 0.496094,-0.375 1.476563,-0.375 h 1.007812 v -0.07031 q 0,-0.496094 -0.328125,-0.765625 -0.324218,-0.273438 -0.914062,-0.273438 -0.375,0 -0.730469,0.08984 -0.355469,0.08984 -0.683594,0.269531 v -0.664062 q 0.394532,-0.152344 0.765625,-0.226563 0.371094,-0.07813 0.722657,-0.07813 0.949218,0 1.417968,0.492188 0.46875,0.492187 0.46875,1.492187 z"
         id="path4513"
         inkscape:connector-curvature="0" />
      <path
         d="m 64.562906,12.457176 q -0.871093,0 -1.207031,0.199219 -0.335937,0.199219 -0.335937,0.679687 0,0.382813 0.25,0.609375 0.253906,0.222657 0.6875,0.222657 0.597656,0 0.957031,-0.421875 0.363281,-0.425782 0.363281,-1.128907 V 12.457176 Z M 65.9965,12.160301 v 2.496094 h -0.71875 v -0.664063 q -0.246094,0.398438 -0.613281,0.589844 -0.367188,0.1875 -0.898438,0.1875 -0.671875,0 -1.070312,-0.375 -0.394531,-0.378906 -0.394531,-1.011719 0,-0.738281 0.492187,-1.113281 0.496094,-0.375 1.476563,-0.375 h 1.007812 v -0.07031 q 0,-0.496094 -0.328125,-0.765625 -0.324219,-0.273438 -0.914062,-0.273438 -0.375,0 -0.730469,0.08984 -0.355469,0.08984 -0.683594,0.269531 v -0.664062 q 0.394531,-0.152344 0.765625,-0.226563 0.371094,-0.07813 0.722656,-0.07813 0.949219,0 1.417969,0.492188 0.46875,0.492187 0.46875,1.492187 z"
         id="path4515"
         inkscape:connector-curvature="0" />
      <path
         d="m 70.355875,12.418114 q 0,-0.78125 -0.324219,-1.210938 -0.320312,-0.429687 -0.902343,-0.429687 -0.578125,0 -0.902344,0.429687 -0.320313,0.429688 -0.320313,1.210938 0,0.777343 0.320313,1.207031 0.324219,0.429687 0.902344,0.429687 0.582031,0 0.902343,-0.429687 0.324219,-0.429688 0.324219,-1.207031 z m 0.71875,1.695312 q 0,1.117188 -0.496094,1.660156 -0.496093,0.546875 -1.519531,0.546875 -0.378906,0 -0.714844,-0.05859 -0.335937,-0.05469 -0.652343,-0.171875 V 15.39077 q 0.316406,0.171875 0.625,0.253906 0.308593,0.08203 0.628906,0.08203 0.707031,0 1.058594,-0.371093 0.351562,-0.367188 0.351562,-1.113282 v -0.355468 q -0.222656,0.386718 -0.570312,0.578125 -0.347657,0.191406 -0.832032,0.191406 -0.804687,0 -1.296875,-0.613281 -0.492187,-0.613282 -0.492187,-1.625 0,-1.015625 0.492187,-1.628907 0.492188,-0.613281 1.296875,-0.613281 0.484375,0 0.832032,0.191406 0.347656,0.191407 0.570312,0.578125 v -0.664062 h 0.71875 z"
         id="path4517"
         inkscape:connector-curvature="0" />
    </g>
    <g
       aria-label="Verborgen
laag"
       style="font-style:normal;font-weight:normal;font-size:8px;line-height:1.25;font-family:sans-serif;text-align:center;letter-spacing:0px;word-spacing:0px;text-anchor:middle;fill:#000000;fill-opacity:1;stroke:none"
       id="text4443-9">
      <path
         d="m 107.25514,14.656395 -2.22656,-5.8320313 h 0.82422 l 1.84765,4.9101563 1.85157,-4.9101563 h 0.82031 l -2.22266,5.8320313 z"
         id="path4520"
         inkscape:connector-curvature="0" />
      <path
         d="m 114.31374,12.289207 v 0.351563 h -3.30469 q 0.0469,0.742187 0.44531,1.132812 0.40234,0.386719 1.11719,0.386719 0.41406,0 0.80078,-0.101562 0.39062,-0.101563 0.77344,-0.304688 v 0.679688 q -0.38672,0.164062 -0.79297,0.25 -0.40625,0.08594 -0.82422,0.08594 -1.04688,0 -1.66016,-0.609375 -0.60937,-0.609375 -0.60937,-1.648437 0,-1.074219 0.57812,-1.703125 0.58203,-0.632813 1.56641,-0.632813 0.88281,0 1.39453,0.570313 0.51563,0.566406 0.51563,1.542968 z m -0.71875,-0.210937 q -0.008,-0.589844 -0.33204,-0.941406 -0.32031,-0.351563 -0.85156,-0.351563 -0.60156,0 -0.96484,0.339844 -0.35938,0.339844 -0.41406,0.957031 z"
         id="path4522"
         inkscape:connector-curvature="0" />
      <path
         d="m 118.02858,10.95327 q -0.12109,-0.07031 -0.26563,-0.101563 -0.14062,-0.03516 -0.3125,-0.03516 -0.60937,0 -0.9375,0.398438 -0.32421,0.394531 -0.32421,1.136718 v 2.304688 h -0.72266 v -4.375 h 0.72266 v 0.679687 q 0.22656,-0.398437 0.58984,-0.589843 0.36328,-0.195313 0.88281,-0.195313 0.0742,0 0.16406,0.01172 0.0898,0.0078 0.19922,0.02734 z"
         id="path4524"
         inkscape:connector-curvature="0" />
      <path
         d="m 121.92311,12.472801 q 0,-0.792969 -0.32812,-1.242187 -0.32422,-0.453125 -0.89454,-0.453125 -0.57031,0 -0.89843,0.453125 -0.32422,0.449218 -0.32422,1.242187 0,0.792969 0.32422,1.246094 0.32812,0.449219 0.89843,0.449219 0.57032,0 0.89454,-0.449219 0.32812,-0.453125 0.32812,-1.246094 z m -2.44531,-1.527344 q 0.22656,-0.390625 0.57031,-0.578125 0.34766,-0.191406 0.82813,-0.191406 0.79687,0 1.29296,0.632813 0.5,0.632812 0.5,1.664062 0,1.03125 -0.5,1.664063 -0.49609,0.632812 -1.29296,0.632812 -0.48047,0 -0.82813,-0.1875 -0.34375,-0.191406 -0.57031,-0.582031 v 0.65625 h -0.72266 V 8.57827 h 0.72266 z"
         id="path4526"
         inkscape:connector-curvature="0" />
      <path
         d="m 125.55592,10.785301 q -0.57812,0 -0.91406,0.453125 -0.33594,0.449219 -0.33594,1.234375 0,0.785156 0.33203,1.238281 0.33594,0.449219 0.91797,0.449219 0.57422,0 0.91016,-0.453125 0.33594,-0.453125 0.33594,-1.234375 0,-0.777344 -0.33594,-1.230469 -0.33594,-0.457031 -0.91016,-0.457031 z m 0,-0.609375 q 0.9375,0 1.47266,0.609375 0.53516,0.609375 0.53516,1.6875 0,1.074219 -0.53516,1.6875 -0.53516,0.609375 -1.47266,0.609375 -0.9414,0 -1.47656,-0.609375 -0.53125,-0.613281 -0.53125,-1.6875 0,-1.078125 0.53125,-1.6875 0.53516,-0.609375 1.47656,-0.609375 z"
         id="path4528"
         inkscape:connector-curvature="0" />
      <path
         d="m 131.2903,10.95327 q -0.1211,-0.07031 -0.26563,-0.101563 -0.14062,-0.03516 -0.3125,-0.03516 -0.60937,0 -0.9375,0.398438 -0.32422,0.394531 -0.32422,1.136718 v 2.304688 h -0.72265 v -4.375 h 0.72265 v 0.679687 q 0.22657,-0.398437 0.58985,-0.589843 0.36328,-0.195313 0.88281,-0.195313 0.0742,0 0.16406,0.01172 0.0899,0.0078 0.19922,0.02734 z"
         id="path4530"
         inkscape:connector-curvature="0" />
      <path
         d="m 134.78249,12.418114 q 0,-0.78125 -0.32422,-1.210938 -0.32032,-0.429687 -0.90235,-0.429687 -0.57812,0 -0.90234,0.429687 -0.32031,0.429688 -0.32031,1.210938 0,0.777343 0.32031,1.207031 0.32422,0.429687 0.90234,0.429687 0.58203,0 0.90235,-0.429687 0.32422,-0.429688 0.32422,-1.207031 z m 0.71875,1.695312 q 0,1.117188 -0.4961,1.660156 -0.49609,0.546875 -1.51953,0.546875 -0.37891,0 -0.71484,-0.05859 -0.33594,-0.05469 -0.65235,-0.171875 V 15.39077 q 0.31641,0.171875 0.625,0.253906 0.3086,0.08203 0.62891,0.08203 0.70703,0 1.05859,-0.371093 0.35157,-0.367188 0.35157,-1.113282 v -0.355468 q -0.22266,0.386718 -0.57032,0.578125 -0.34765,0.191406 -0.83203,0.191406 -0.80469,0 -1.29687,-0.613281 -0.49219,-0.613282 -0.49219,-1.625 0,-1.015625 0.49219,-1.628907 0.49218,-0.613281 1.29687,-0.613281 0.48438,0 0.83203,0.191406 0.34766,0.191407 0.57032,0.578125 v -0.664062 h 0.71875 z"
         id="path4532"
         inkscape:connector-curvature="0" />
      <path
         d="m 140.72389,12.289207 v 0.351563 h -3.30469 q 0.0469,0.742187 0.44532,1.132812 0.40234,0.386719 1.11718,0.386719 0.41407,0 0.80079,-0.101562 0.39062,-0.101563 0.77343,-0.304688 v 0.679688 q -0.38672,0.164062 -0.79297,0.25 -0.40625,0.08594 -0.82421,0.08594 -1.04688,0 -1.66016,-0.609375 -0.60938,-0.609375 -0.60938,-1.648437 0,-1.074219 0.57813,-1.703125 0.58203,-0.632813 1.56641,-0.632813 0.88281,0 1.39453,0.570313 0.51562,0.566406 0.51562,1.542968 z m -0.71875,-0.210937 q -0.008,-0.589844 -0.33203,-0.941406 -0.32031,-0.351563 -0.85156,-0.351563 -0.60156,0 -0.96485,0.339844 -0.35937,0.339844 -0.41406,0.957031 z"
         id="path4534"
         inkscape:connector-curvature="0" />
      <path
         d="m 145.5403,12.01577 v 2.640625 h -0.71875 v -2.617188 q 0,-0.621093 -0.24219,-0.929687 -0.24219,-0.308594 -0.72656,-0.308594 -0.58203,0 -0.91797,0.371094 -0.33594,0.371094 -0.33594,1.011719 v 2.472656 h -0.72265 v -4.375 h 0.72265 v 0.679687 q 0.25781,-0.394531 0.60547,-0.589843 0.35156,-0.195313 0.80859,-0.195313 0.75391,0 1.14063,0.46875 0.38672,0.464844 0.38672,1.371094 z"
         id="path4536"
         inkscape:connector-curvature="0" />
      <path
         d="m 117.7942,18.57827 h 0.71875 v 6.078125 h -0.71875 z"
         id="path4538"
         inkscape:connector-curvature="0" />
      <path
         d="m 122.00514,22.457176 q -0.87109,0 -1.20703,0.199219 -0.33594,0.199219 -0.33594,0.679687 0,0.382813 0.25,0.609375 0.25391,0.222657 0.6875,0.222657 0.59766,0 0.95703,-0.421875 0.36329,-0.425782 0.36329,-1.128907 v -0.160156 z m 1.4336,-0.296875 v 2.496094 h -0.71875 v -0.664063 q -0.2461,0.398438 -0.61329,0.589844 -0.36718,0.1875 -0.89843,0.1875 -0.67188,0 -1.07032,-0.375 -0.39453,-0.378906 -0.39453,-1.011719 0,-0.738281 0.49219,-1.113281 0.49609,-0.375 1.47656,-0.375 h 1.00782 v -0.07031 q 0,-0.496094 -0.32813,-0.765625 -0.32422,-0.273438 -0.91406,-0.273438 -0.375,0 -0.73047,0.08984 -0.35547,0.08984 -0.68359,0.269531 v -0.664062 q 0.39453,-0.152344 0.76562,-0.226563 0.37109,-0.07813 0.72266,-0.07813 0.94922,0 1.41797,0.492188 0.46875,0.492187 0.46875,1.492187 z"
         id="path4540"
         inkscape:connector-curvature="0" />
      <path
         d="m 126.90749,22.457176 q -0.8711,0 -1.20704,0.199219 -0.33593,0.199219 -0.33593,0.679687 0,0.382813 0.25,0.609375 0.2539,0.222657 0.6875,0.222657 0.59765,0 0.95703,-0.421875 0.36328,-0.425782 0.36328,-1.128907 v -0.160156 z m 1.43359,-0.296875 v 2.496094 h -0.71875 v -0.664063 q -0.24609,0.398438 -0.61328,0.589844 -0.36719,0.1875 -0.89844,0.1875 -0.67187,0 -1.07031,-0.375 -0.39453,-0.378906 -0.39453,-1.011719 0,-0.738281 0.49218,-1.113281 0.4961,-0.375 1.47657,-0.375 h 1.00781 v -0.07031 q 0,-0.496094 -0.32813,-0.765625 -0.32421,-0.273438 -0.91406,-0.273438 -0.375,0 -0.73047,0.08984 -0.35547,0.08984 -0.68359,0.269531 v -0.664062 q 0.39453,-0.152344 0.76562,-0.226563 0.3711,-0.07813 0.72266,-0.07813 0.94922,0 1.41797,0.492188 0.46875,0.492187 0.46875,1.492187 z"
         id="path4542"
         inkscape:connector-curvature="0" />
      <path
         d="m 132.70045,22.418114 q 0,-0.78125 -0.32421,-1.210938 -0.32032,-0.429687 -0.90235,-0.429687 -0.57812,0 -0.90234,0.429687 -0.32031,0.429688 -0.32031,1.210938 0,0.777343 0.32031,1.207031 0.32422,0.429687 0.90234,0.429687 0.58203,0 0.90235,-0.429687 0.32421,-0.429688 0.32421,-1.207031 z m 0.71875,1.695312 q 0,1.117188 -0.49609,1.660156 -0.49609,0.546875 -1.51953,0.546875 -0.37891,0 -0.71484,-0.05859 -0.33594,-0.05469 -0.65235,-0.171875 V 25.39077 q 0.31641,0.171875 0.625,0.253906 0.3086,0.08203 0.62891,0.08203 0.70703,0 1.05859,-0.371093 0.35156,-0.367188 0.35156,-1.113282 v -0.355468 q -0.22265,0.386718 -0.57031,0.578125 -0.34765,0.191406 -0.83203,0.191406 -0.80469,0 -1.29687,-0.613281 -0.49219,-0.613282 -0.49219,-1.625 0,-1.015625 0.49219,-1.628907 0.49218,-0.613281 1.29687,-0.613281 0.48438,0 0.83203,0.191406 0.34766,0.191407 0.57031,0.578125 v -0.664062 h 0.71875 z"
         id="path4544"
         inkscape:connector-curvature="0" />
    </g>
    <g
       aria-label="Uitvoerlaag"
       style="font-style:normal;font-weight:normal;font-size:8px;line-height:1.25;font-family:sans-serif;text-align:center;letter-spacing:0px;word-spacing:0px;text-anchor:middle;fill:#000000;fill-opacity:1;stroke:none"
       id="text4443-9-6">
      <path
         d="m 176.29695,8.8243637 h 0.79297 v 3.5429683 q 0,0.9375 0.33984,1.351563 0.33985,0.410156 1.10157,0.410156 0.75781,0 1.09765,-0.410156 0.33985,-0.414063 0.33985,-1.351563 V 8.8243637 h 0.79297 v 3.6406253 q 0,1.140625 -0.56641,1.722656 -0.5625,0.582031 -1.66406,0.582031 -1.10547,0 -1.67188,-0.582031 -0.5625,-0.582031 -0.5625,-1.722656 z"
         id="path4547"
         inkscape:connector-curvature="0" />
      <path
         d="m 182.21101,10.281395 h 0.71875 v 4.375 h -0.71875 z m 0,-1.703125 h 0.71875 v 0.9101562 h -0.71875 z"
         id="path4549"
         inkscape:connector-curvature="0" />
      <path
         d="m 185.14461,9.0392075 v 1.2421875 h 1.48047 v 0.558594 h -1.48047 v 2.375 q 0,0.535156 0.14453,0.6875 0.14844,0.152343 0.59766,0.152343 h 0.73828 v 0.601563 h -0.73828 q -0.83204,0 -1.14844,-0.308594 -0.31641,-0.3125 -0.31641,-1.132812 v -2.375 h -0.52734 v -0.558594 h 0.52734 V 9.0392075 Z"
         id="path4551"
         inkscape:connector-curvature="0" />
      <path
         d="m 187.05476,10.281395 h 0.76172 l 1.36719,3.671875 1.36719,-3.671875 h 0.76172 l -1.64063,4.375 h -0.97656 z"
         id="path4553"
         inkscape:connector-curvature="0" />
      <path
         d="m 194.00008,10.785301 q -0.57813,0 -0.91407,0.453125 -0.33593,0.449219 -0.33593,1.234375 0,0.785156 0.33203,1.238281 0.33594,0.449219 0.91797,0.449219 0.57422,0 0.91015,-0.453125 0.33594,-0.453125 0.33594,-1.234375 0,-0.777344 -0.33594,-1.230469 -0.33593,-0.457031 -0.91015,-0.457031 z m 0,-0.609375 q 0.9375,0 1.47265,0.609375 0.53516,0.609375 0.53516,1.6875 0,1.074219 -0.53516,1.6875 -0.53515,0.609375 -1.47265,0.609375 -0.94141,0 -1.47657,-0.609375 -0.53125,-0.613281 -0.53125,-1.6875 0,-1.078125 0.53125,-1.6875 0.53516,-0.609375 1.47657,-0.609375 z"
         id="path4555"
         inkscape:connector-curvature="0" />
      <path
         d="m 200.94148,12.289207 v 0.351563 h -3.30468 q 0.0469,0.742187 0.44531,1.132812 0.40234,0.386719 1.11719,0.386719 0.41406,0 0.80078,-0.101562 0.39062,-0.101563 0.77343,-0.304688 v 0.679688 q -0.38671,0.164062 -0.79296,0.25 -0.40625,0.08594 -0.82422,0.08594 -1.04688,0 -1.66016,-0.609375 -0.60937,-0.609375 -0.60937,-1.648437 0,-1.074219 0.57812,-1.703125 0.58203,-0.632813 1.56641,-0.632813 0.88281,0 1.39453,0.570313 0.51562,0.566406 0.51562,1.542968 z m -0.71875,-0.210937 q -0.008,-0.589844 -0.33203,-0.941406 -0.32031,-0.351563 -0.85156,-0.351563 -0.60156,0 -0.96484,0.339844 -0.35938,0.339844 -0.41407,0.957031 z"
         id="path4557"
         inkscape:connector-curvature="0" />
      <path
         d="m 204.65633,10.95327 q -0.1211,-0.07031 -0.26563,-0.101563 -0.14062,-0.03516 -0.3125,-0.03516 -0.60937,0 -0.9375,0.398438 -0.32422,0.394531 -0.32422,1.136718 v 2.304688 h -0.72265 v -4.375 h 0.72265 v 0.679687 q 0.22657,-0.398437 0.58985,-0.589843 0.36328,-0.195313 0.88281,-0.195313 0.0742,0 0.16406,0.01172 0.0898,0.0078 0.19922,0.02734 z"
         id="path4559"
         inkscape:connector-curvature="0" />
      <path
         d="m 205.41023,8.57827 h 0.71875 v 6.078125 h -0.71875 z"
         id="path4561"
         inkscape:connector-curvature="0" />
      <path
         d="m 209.62117,12.457176 q -0.87109,0 -1.20703,0.199219 -0.33594,0.199219 -0.33594,0.679687 0,0.382813 0.25,0.609375 0.25391,0.222657 0.6875,0.222657 0.59766,0 0.95703,-0.421875 0.36328,-0.425782 0.36328,-1.128907 v -0.160156 z m 1.43359,-0.296875 v 2.496094 h -0.71875 v -0.664063 q -0.24609,0.398438 -0.61328,0.589844 -0.36718,0.1875 -0.89843,0.1875 -0.67188,0 -1.07032,-0.375 -0.39453,-0.378906 -0.39453,-1.011719 0,-0.738281 0.49219,-1.113281 0.49609,-0.375 1.47656,-0.375 h 1.00781 v -0.07031 q 0,-0.496094 -0.32812,-0.765625 -0.32422,-0.273438 -0.91406,-0.273438 -0.375,0 -0.73047,0.08984 -0.35547,0.08984 -0.6836,0.269531 v -0.664062 q 0.39454,-0.152344 0.76563,-0.226563 0.37109,-0.07813 0.72266,-0.07813 0.94921,0 1.41796,0.492188 0.46875,0.492187 0.46875,1.492187 z"
         id="path4563"
         inkscape:connector-curvature="0" />
      <path
         d="m 214.52351,12.457176 q -0.87109,0 -1.20703,0.199219 -0.33593,0.199219 -0.33593,0.679687 0,0.382813 0.25,0.609375 0.2539,0.222657 0.6875,0.222657 0.59765,0 0.95703,-0.421875 0.36328,-0.425782 0.36328,-1.128907 v -0.160156 z m 1.4336,-0.296875 v 2.496094 h -0.71875 v -0.664063 q -0.2461,0.398438 -0.61328,0.589844 -0.36719,0.1875 -0.89844,0.1875 -0.67188,0 -1.07031,-0.375 -0.39453,-0.378906 -0.39453,-1.011719 0,-0.738281 0.49218,-1.113281 0.4961,-0.375 1.47657,-0.375 h 1.00781 v -0.07031 q 0,-0.496094 -0.32813,-0.765625 -0.32422,-0.273438 -0.91406,-0.273438 -0.375,0 -0.73047,0.08984 -0.35547,0.08984 -0.68359,0.269531 v -0.664062 q 0.39453,-0.152344 0.76562,-0.226563 0.3711,-0.07813 0.72266,-0.07813 0.94922,0 1.41797,0.492188 0.46875,0.492187 0.46875,1.492187 z"
         id="path4565"
         inkscape:connector-curvature="0" />
      <path
         d="m 220.31648,12.418114 q 0,-0.78125 -0.32422,-1.210938 -0.32031,-0.429687 -0.90234,-0.429687 -0.57812,0 -0.90234,0.429687 -0.32032,0.429688 -0.32032,1.210938 0,0.777343 0.32032,1.207031 0.32422,0.429687 0.90234,0.429687 0.58203,0 0.90234,-0.429687 0.32422,-0.429688 0.32422,-1.207031 z m 0.71875,1.695312 q 0,1.117188 -0.49609,1.660156 -0.49609,0.546875 -1.51953,0.546875 -0.37891,0 -0.71485,-0.05859 -0.33593,-0.05469 -0.65234,-0.171875 V 15.39077 q 0.31641,0.171875 0.625,0.253906 0.30859,0.08203 0.62891,0.08203 0.70703,0 1.05859,-0.371093 0.35156,-0.367188 0.35156,-1.113282 v -0.355468 q -0.22265,0.386718 -0.57031,0.578125 -0.34766,0.191406 -0.83203,0.191406 -0.80469,0 -1.29688,-0.613281 -0.49218,-0.613282 -0.49218,-1.625 0,-1.015625 0.49218,-1.628907 0.49219,-0.613281 1.29688,-0.613281 0.48437,0 0.83203,0.191406 0.34766,0.191407 0.57031,0.578125 v -0.664062 h 0.71875 z"
         id="path4567"
         inkscape:connector-curvature="0" />
    </g>
    <text
       xml:space="preserve"
       style="font-style:normal;font-weight:normal;font-size:8px;line-height:1.25;font-family:sans-serif;letter-spacing:0px;word-spacing:0px;fill:#000000;fill-opacity:1;stroke:none"
       x="4.9979377"
       y="38.89772"
       id="text4617"><tspan
         sodipodi:role="line"
         id="tspan4615"
         x="4.9979377"
         y="38.89772">Invoer 1</tspan></text>
    <text
       xml:space="preserve"
       style="font-style:normal;font-weight:normal;font-size:8px;line-height:1.25;font-family:sans-serif;letter-spacing:0px;word-spacing:0px;fill:#000000;fill-opacity:1;stroke:none"
       x="6.2964373"
       y="61.61272"
       id="text4617-4"><tspan
         sodipodi:role="line"
         id="tspan4615-1"
         x="6.2964373"
         y="61.61272">Invoer 2</tspan></text>
    <text
       xml:space="preserve"
       style="font-style:normal;font-weight:normal;font-size:8px;line-height:1.25;font-family:sans-serif;letter-spacing:0px;word-spacing:0px;fill:#000000;fill-opacity:1;stroke:none"
       x="5.9984269"
       y="84.326721"
       id="text4617-4-7"><tspan
         sodipodi:role="line"
         id="tspan4615-1-9"
         x="5.9984269"
         y="84.326721">Invoer 3</tspan></text>
    <text
       xml:space="preserve"
       style="font-style:normal;font-weight:normal;font-size:8px;line-height:1.25;font-family:sans-serif;letter-spacing:0px;word-spacing:0px;fill:#000000;fill-opacity:1;stroke:none"
       x="6.2658749"
       y="107.13572"
       id="text4617-4-7-3"><tspan
         sodipodi:role="line"
         id="tspan4615-1-9-9"
         x="6.2658749"
         y="107.13572">Invoer 4</tspan></text>
    <text
       xml:space="preserve"
       style="font-style:normal;font-weight:normal;font-size:8px;line-height:1.25;font-family:sans-serif;letter-spacing:0px;word-spacing:0px;fill:#000000;fill-opacity:1;stroke:none"
       x="6.0586228"
       y="130.30072"
       id="text4617-4-7-2"><tspan
         sodipodi:role="line"
         id="tspan4615-1-9-8"
         x="6.0586228"
         y="130.30072">Invoer 5</tspan></text>
    <text
       xml:space="preserve"
       style="font-style:normal;font-weight:normal;font-size:8px;line-height:1.25;font-family:sans-serif;letter-spacing:0px;word-spacing:0px;display:inline;fill:#000000;fill-opacity:1;stroke:none"
       x="209.77231"
       y="84.326721"
       id="text4722"><tspan
         sodipodi:role="line"
         id="tspan4720"
         x="209.77231"
         y="84.326721">Uitvoer</tspan></text>
  </g>
</svg>
