<?xml version="1.0" encoding="UTF-8" standalone="no"?>
<svg
   xmlns:dc="http://purl.org/dc/elements/1.1/"
   xmlns:cc="http://creativecommons.org/ns#"
   xmlns:rdf="http://www.w3.org/1999/02/22-rdf-syntax-ns#"
   xmlns:svg="http://www.w3.org/2000/svg"
   xmlns="http://www.w3.org/2000/svg"
   xmlns:sodipodi="http://sodipodi.sourceforge.net/DTD/sodipodi-0.dtd"
   xmlns:inkscape="http://www.inkscape.org/namespaces/inkscape"
   viewBox="0 0 250.785 157.48"
   version="1.1"
   id="svg290"
   sodipodi:docname="what-is-a-neural-network-fig-2-nl.svg"
   inkscape:version="0.92.5 (2060ec1f9f, 2020-04-08)">
  <metadata
     id="metadata296">
    <rdf:RDF>
      <cc:Work
         rdf:about="">
        <dc:format>image/svg+xml</dc:format>
        <dc:type
           rdf:resource="http://purl.org/dc/dcmitype/StillImage" />
      </cc:Work>
    </rdf:RDF>
  </metadata>
  <defs
     id="defs294" />
  <sodipodi:namedview
     pagecolor="#ffffff"
     bordercolor="#666666"
     borderopacity="1"
     objecttolerance="10"
     gridtolerance="10"
     guidetolerance="10"
     inkscape:pageopacity="0"
     inkscape:pageshadow="2"
     inkscape:window-width="1848"
     inkscape:window-height="1016"
     id="namedview292"
     showgrid="false"
     inkscape:zoom="3.9135682"
     inkscape:cx="108.67787"
     inkscape:cy="83.343308"
     inkscape:window-x="72"
     inkscape:window-y="27"
     inkscape:window-maximized="1"
     inkscape:current-layer="g288" />
  <g
     id="g288">
    <g
       id="g6">
      <path
         d="m 13.706,27.791 q -0.087,-0.462 -0.182,-0.89 -0.095,-0.428 -0.193,-0.8 a 2.527,2.527 0 0 0 -0.164,-0.484 0.423,0.423 0 0 0 -0.138,-0.158 0.353,0.353 0 0 0 -0.184,-0.044 0.453,0.453 0 0 0 -0.223,0.056 0.863,0.863 0 0 0 -0.217,0.193 4.889,4.889 0 0 0 -0.31,0.431 l -0.381,-0.252 a 3.707,3.707 0 0 1 0.709,-0.832 1.232,1.232 0 0 1 0.8,-0.275 1.1,1.1 0 0 1 0.319,0.041 0.686,0.686 0 0 1 0.243,0.126 0.833,0.833 0 0 1 0.188,0.219 1.853,1.853 0 0 1 0.158,0.367 4.834,4.834 0 0 1 0.143,0.574 c 0.045,0.228 0.085,0.466 0.121,0.712 h 0.058 q 0.563,-0.792 0.853,-1.158 a 4.5,4.5 0 0 1 0.489,-0.544 1.288,1.288 0 0 1 0.384,-0.252 1.345,1.345 0 0 1 0.489,-0.074 1.222,1.222 0 0 1 0.451,0.071 l -0.234,1.06 h -0.41 C 16.451,25.714 16.383,25.632 16.27,25.632 a 0.379,0.379 0 0 0 -0.112,0.018 0.516,0.516 0 0 0 -0.143,0.076 1.881,1.881 0 0 0 -0.249,0.228 c -0.11,0.114 -0.233,0.252 -0.37,0.416 -0.137,0.164 -0.277,0.336 -0.421,0.516 l -0.4,0.5 c 0.07,0.375 0.137,0.7 0.2,0.973 0.063,0.273 0.119,0.5 0.167,0.682 0.048,0.182 0.092,0.326 0.129,0.431 a 0.8,0.8 0 0 0 0.12,0.237 0.4,0.4 0 0 0 0.132,0.112 0.365,0.365 0 0 0 0.156,0.032 0.479,0.479 0 0 0 0.307,-0.123 2.753,2.753 0 0 0 0.431,-0.557 l 0.381,0.252 a 3.617,3.617 0 0 1 -0.742,0.858 1.266,1.266 0 0 1 -0.788,0.25 0.926,0.926 0 0 1 -0.427,-0.091 0.815,0.815 0 0 1 -0.3,-0.29 2.081,2.081 0 0 1 -0.229,-0.621 9.3,9.3 0 0 1 -0.222,-1.149 h -0.059 q -0.621,0.873 -0.923,1.254 a 5.271,5.271 0 0 1 -0.5,0.563 1.245,1.245 0 0 1 -0.381,0.254 1.345,1.345 0 0 1 -0.489,0.074 1.225,1.225 0 0 1 -0.451,-0.071 l 0.234,-1.06 h 0.411 c 0.023,0.164 0.091,0.246 0.205,0.246 a 0.4,0.4 0 0 0 0.172,-0.044 1.163,1.163 0 0 0 0.261,-0.211 c 0.113,-0.111 0.27,-0.286 0.469,-0.524 0.199,-0.238 0.488,-0.595 0.867,-1.072 z"
         id="path2"
         inkscape:connector-curvature="0"
         style="fill:#231f20" />
      <path
         d="m 19.672,33.544 a 1.477,1.477 0 0 0 0.022,0.3 0.355,0.355 0 0 0 0.079,0.164 0.373,0.373 0 0 0 0.162,0.1 1.334,1.334 0 0 0 0.267,0.055 c 0.107,0.013 0.248,0.021 0.423,0.025 v 0.25 H 18.1 v -0.25 a 4.446,4.446 0 0 0 0.541,-0.046 0.642,0.642 0 0 0 0.248,-0.087 0.328,0.328 0 0 0 0.124,-0.164 1.051,1.051 0 0 0 0.04,-0.345 v -2.77 a 0.333,0.333 0 0 0 -0.048,-0.2 0.166,0.166 0 0 0 -0.14,-0.063 0.732,0.732 0 0 0 -0.311,0.112 q -0.2,0.114 -0.5,0.311 l -0.15,-0.263 1.6,-0.952 h 0.188 q -0.02,0.327 -0.02,0.908 z"
         id="path4"
         inkscape:connector-curvature="0"
         style="fill:#231f20" />
    </g>
    <g
       id="g16">
      <path
         d="m 51.642,28.509 a 3.272,3.272 0 0 0 -0.144,0.839 0.641,0.641 0 0 0 0.707,0.732 c 1.3,0 1.967,-1.379 2.339,-2.435 a 2.854,2.854 0 0 0 0.18,-0.887 c 0,-0.888 -0.708,-0.792 -0.732,-1.307 -0.024,-0.432 0.36,-0.5 0.648,-0.5 0.5,0 0.564,0.611 0.564,1 0,1.751 -1.26,4.606 -3.31,4.606 -0.828,0 -1.332,-0.336 -1.332,-1.2 a 5.8,5.8 0 0 1 0.276,-1.5 c -0.48,1.068 -1.463,2.7 -2.807,2.7 -0.671,0 -0.935,-0.408 -0.935,-1.044 a 4.578,4.578 0 0 1 0.228,-1.139 l 0.564,-2.123 a 1.144,1.144 0 0 0 0.059,-0.348 c 0,-0.288 -0.455,-0.264 -0.647,-0.264 V 25.46 a 8.419,8.419 0 0 0 1.859,-0.528 l 0.048,0.036 -0.972,3.682 a 4.114,4.114 0 0 0 -0.131,0.875 c 0,0.312 0.071,0.564 0.336,0.564 0.7,-0.012 1.546,-1.367 1.834,-1.811 a 10.787,10.787 0 0 0 1.319,-3.226 H 52.6 Z"
         id="path8"
         inkscape:connector-curvature="0"
         style="fill:#231f20" />
      <path
         d="M 56.476,33.9 A 0.528,0.528 0 0 0 56.469,34 c 0,0.05 0.042,0.07 0.091,0.07 0.153,0 0.2,-0.083 0.447,-0.356 l 0.091,0.07 c -0.245,0.315 -0.595,0.734 -0.937,0.734 -0.2,0 -0.279,-0.133 -0.279,-0.322 a 16.216,16.216 0 0 1 0.552,-2.362 0.3,0.3 0 0 0 0.014,-0.084 c 0,-0.119 -0.056,-0.153 -0.217,-0.153 a 0.836,0.836 0 0 0 -0.2,0.027 l -0.02,-0.111 1.1,-0.154 z m 0.517,-3.1 a 0.316,0.316 0 0 1 -0.336,-0.322 0.342,0.342 0 0 1 0.336,-0.349 0.357,0.357 0 0 1 0.335,0.349 0.329,0.329 0 0 1 -0.335,0.322 z"
         id="path10"
         inkscape:connector-curvature="0"
         style="fill:#231f20" />
      <path
         d="m 58.218,35.288 c 0.385,-0.258 0.58,-0.517 0.58,-0.747 a 0.094,0.094 0 0 0 -0.1,-0.091 c -0.055,0 -0.125,0.028 -0.2,0.028 -0.259,0 -0.406,-0.119 -0.406,-0.357 a 0.388,0.388 0 0 1 0.42,-0.4 0.565,0.565 0 0 1 0.559,0.608 1.284,1.284 0 0 1 -0.783,1.09 z"
         id="path12"
         inkscape:connector-curvature="0"
         style="fill:#231f20" />
      <path
         d="m 60.282,34.436 v -0.1 c 0.517,-0.028 0.664,-0.175 0.664,-0.559 v -3.143 c 0,-0.238 -0.063,-0.342 -0.21,-0.342 a 1.05,1.05 0 0 0 -0.315,0.083 l -0.188,0.071 v -0.1 l 1.251,-0.635 0.062,0.021 v 4.172 c 0,0.3 0.141,0.426 0.665,0.426 v 0.1 z"
         id="path14"
         inkscape:connector-curvature="0"
         style="fill:#231f20" />
    </g>
    <g
       id="g22">
      <path
         d="m 15.108,55.748 c 0.312,-0.479 0.732,-1.007 1.332,-1.007 0.383,0 0.587,0.144 0.587,0.4 a 0.48,0.48 0 0 1 -0.467,0.5 c -0.264,0 -0.324,-0.107 -0.528,-0.107 -0.36,0 -0.492,0.191 -0.66,0.455 l -0.66,1.02 c 0.36,0.743 0.636,2.362 1.176,2.362 0.192,0 0.48,-0.168 0.732,-0.683 l 0.168,0.12 c -0.144,0.18 -0.684,1.331 -1.38,1.331 -0.491,0 -0.719,-0.492 -0.875,-0.923 L 14.053,57.86 13.3,59.034 c -0.383,0.588 -0.731,1.1 -1.4,1.1 a 0.57,0.57 0 0 1 -0.623,-0.563 0.451,0.451 0 0 1 0.455,-0.444 c 0.312,0 0.264,0.239 0.564,0.239 0.144,0 0.456,-0.12 0.839,-0.707 l 0.78,-1.212 -0.4,-1.1 C 13.315,55.771 13,55.28 12.34,55.28 a 1.347,1.347 0 0 0 -0.456,0.072 l -0.036,-0.216 1.583,-0.4 a 2.033,2.033 0 0 1 0.9,1.175 l 0.24,0.66 z"
         id="path18"
         inkscape:connector-curvature="0"
         style="fill:#231f20" />
      <path
         d="m 18.069,60.434 a 1.826,1.826 0 0 1 0.574,-0.838 1.412,1.412 0 0 1 0.894,-0.294 1.122,1.122 0 0 1 1.132,1.181 c 0,0.468 -0.216,0.79 -1.041,1.635 l -1.314,1.342 v 0.04 h 1.265 a 0.647,0.647 0 0 0 0.72,-0.454 l 0.119,0.049 -0.35,0.936 h -2.474 v -0.118 l 1.468,-1.566 a 4.99,4.99 0 0 0 0.943,-1.307 0.942,0.942 0 0 0 0.063,-0.377 0.778,0.778 0 0 0 -0.832,-0.846 1.108,1.108 0 0 0 -1.02,0.671 z"
         id="path20"
         inkscape:connector-curvature="0"
         style="fill:#231f20" />
    </g>
    <g
       id="g32">
      <path
         d="m 51.642,58.1 a 3.287,3.287 0 0 0 -0.144,0.84 0.64,0.64 0 0 0 0.707,0.731 c 1.3,0 1.967,-1.379 2.339,-2.434 a 2.855,2.855 0 0 0 0.18,-0.888 c 0,-0.887 -0.708,-0.792 -0.732,-1.307 -0.024,-0.432 0.36,-0.5 0.648,-0.5 0.5,0 0.564,0.612 0.564,1 0,1.751 -1.26,4.6 -3.31,4.6 -0.828,0 -1.332,-0.336 -1.332,-1.2 a 5.789,5.789 0 0 1 0.276,-1.5 c -0.48,1.067 -1.463,2.7 -2.807,2.7 -0.671,0 -0.935,-0.408 -0.935,-1.043 a 4.577,4.577 0 0 1 0.228,-1.14 l 0.564,-2.123 a 1.143,1.143 0 0 0 0.059,-0.347 c 0,-0.288 -0.455,-0.264 -0.647,-0.264 v -0.18 a 8.419,8.419 0 0 0 1.859,-0.528 l 0.048,0.036 -0.972,3.682 a 4.125,4.125 0 0 0 -0.131,0.876 c 0,0.311 0.071,0.563 0.336,0.563 0.7,-0.011 1.546,-1.367 1.834,-1.811 a 10.787,10.787 0 0 0 1.319,-3.226 H 52.6 Z"
         id="path24"
         inkscape:connector-curvature="0"
         style="fill:#231f20" />
      <path
         d="m 56.476,63.488 a 0.532,0.532 0 0 0 -0.007,0.1 c 0,0.049 0.042,0.07 0.091,0.07 0.153,0 0.2,-0.084 0.447,-0.357 l 0.091,0.07 c -0.245,0.315 -0.595,0.734 -0.937,0.734 -0.2,0 -0.279,-0.133 -0.279,-0.321 a 16.234,16.234 0 0 1 0.552,-2.363 0.287,0.287 0 0 0 0.014,-0.083 c 0,-0.119 -0.056,-0.154 -0.217,-0.154 a 0.834,0.834 0 0 0 -0.2,0.028 l -0.02,-0.112 1.1,-0.154 z m 0.517,-3.1 a 0.316,0.316 0 0 1 -0.336,-0.321 0.343,0.343 0 0 1 0.336,-0.35 0.358,0.358 0 0 1 0.335,0.35 0.328,0.328 0 0 1 -0.335,0.325 z"
         id="path26"
         inkscape:connector-curvature="0"
         style="fill:#231f20" />
      <path
         d="m 57.673,64.8 c 0.371,-0.238 0.531,-0.44 0.531,-0.629 0,-0.07 -0.028,-0.119 -0.139,-0.2 a 0.381,0.381 0 0 1 -0.175,-0.342 0.333,0.333 0 0 1 0.356,-0.308 c 0.252,0 0.405,0.238 0.405,0.518 0,0.391 -0.321,0.782 -0.908,1.09 z"
         id="path28"
         inkscape:connector-curvature="0"
         style="fill:#231f20" />
      <path
         d="m 60.016,60.434 a 1.832,1.832 0 0 1 0.573,-0.838 1.417,1.417 0 0 1 0.9,-0.294 1.122,1.122 0 0 1 1.132,1.181 c 0,0.468 -0.217,0.79 -1.041,1.635 l -1.319,1.342 v 0.04 h 1.264 a 0.648,0.648 0 0 0 0.721,-0.454 l 0.118,0.049 -0.349,0.936 h -2.474 v -0.118 l 1.467,-1.566 a 4.974,4.974 0 0 0 0.944,-1.307 0.942,0.942 0 0 0 0.063,-0.377 0.778,0.778 0 0 0 -0.832,-0.846 1.107,1.107 0 0 0 -1.02,0.671 z"
         id="path30"
         inkscape:connector-curvature="0"
         style="fill:#231f20" />
    </g>
    <g
       id="g38">
      <path
         d="m 15.109,120.774 c 0.312,-0.479 0.731,-1.007 1.331,-1.007 0.384,0 0.588,0.144 0.588,0.4 a 0.482,0.482 0 0 1 -0.468,0.5 c -0.264,0 -0.324,-0.108 -0.528,-0.108 -0.36,0 -0.491,0.192 -0.659,0.456 l -0.66,1.02 c 0.36,0.743 0.636,2.362 1.175,2.362 0.192,0 0.48,-0.168 0.732,-0.683 l 0.168,0.12 c -0.144,0.18 -0.683,1.331 -1.379,1.331 -0.492,0 -0.72,-0.492 -0.876,-0.923 l -0.48,-1.356 -0.753,1.174 c -0.384,0.588 -0.732,1.1 -1.4,1.1 a 0.571,0.571 0 0 1 -0.624,-0.564 0.452,0.452 0 0 1 0.456,-0.443 c 0.312,0 0.264,0.239 0.564,0.239 0.143,0 0.455,-0.12 0.839,-0.707 l 0.78,-1.212 -0.4,-1.1 c -0.2,-0.576 -0.516,-1.068 -1.176,-1.068 a 1.32,1.32 0 0 0 -0.455,0.073 l -0.036,-0.216 1.583,-0.4 a 2.027,2.027 0 0 1 0.9,1.175 l 0.24,0.66 z"
         id="path34"
         inkscape:connector-curvature="0"
         style="fill:#231f20" />
      <path
         d="m 20.152,128.563 a 0.407,0.407 0 0 0 -0.013,0.084 c 0,0.042 0.034,0.063 0.1,0.063 0.14,0 0.336,-0.245 0.434,-0.392 l 0.076,0.084 c -0.209,0.315 -0.58,0.734 -0.908,0.734 a 0.26,0.26 0 0 1 -0.28,-0.287 1.521,1.521 0 0 1 0.07,-0.447 H 19.6 c -0.517,0.65 -0.936,0.734 -1.2,0.734 -0.51,0 -0.615,-0.517 -0.615,-0.888 0,-0.719 0.72,-2.278 1.8,-2.278 0.4,0 0.56,0.182 0.566,0.35 h 0.015 l 0.37,-1.461 a 0.351,0.351 0 0 0 0.014,-0.084 c 0,-0.091 -0.049,-0.139 -0.231,-0.139 a 1.425,1.425 0 0 0 -0.189,0.02 l -0.027,-0.1 1.09,-0.168 z m -0.5,-2.383 c -0.692,0 -1.258,1.4 -1.258,2.068 0,0.343 0.2,0.462 0.392,0.462 0.489,0 0.95,-0.657 1.146,-1.3 a 2.568,2.568 0 0 0 0.111,-0.734 c 0.004,-0.329 -0.1,-0.496 -0.387,-0.496 z"
         id="path36"
         inkscape:connector-curvature="0"
         style="fill:#231f20" />
    </g>
    <g
       id="g48">
      <path
         d="m 51.642,123.125 a 3.287,3.287 0 0 0 -0.144,0.84 0.641,0.641 0 0 0 0.707,0.731 c 1.3,0 1.967,-1.379 2.339,-2.434 a 2.86,2.86 0 0 0 0.18,-0.888 c 0,-0.887 -0.708,-0.792 -0.732,-1.307 -0.024,-0.432 0.36,-0.5 0.648,-0.5 0.5,0 0.564,0.612 0.564,1 0,1.751 -1.26,4.606 -3.31,4.606 -0.828,0 -1.332,-0.336 -1.332,-1.2 a 5.789,5.789 0 0 1 0.276,-1.5 c -0.48,1.067 -1.463,2.7 -2.807,2.7 -0.671,0 -0.935,-0.408 -0.935,-1.044 a 4.578,4.578 0 0 1 0.228,-1.139 l 0.564,-2.123 a 1.143,1.143 0 0 0 0.059,-0.347 c 0,-0.289 -0.455,-0.265 -0.647,-0.265 v -0.179 a 8.419,8.419 0 0 0 1.859,-0.528 l 0.048,0.036 -0.972,3.682 a 4.125,4.125 0 0 0 -0.131,0.876 c 0,0.311 0.071,0.563 0.336,0.563 0.7,-0.012 1.546,-1.367 1.834,-1.811 a 10.787,10.787 0 0 0 1.319,-3.226 H 52.6 Z"
         id="path40"
         inkscape:connector-curvature="0"
         style="fill:#231f20" />
      <path
         d="m 56.476,128.514 a 0.532,0.532 0 0 0 -0.007,0.1 c 0,0.049 0.042,0.069 0.091,0.069 0.153,0 0.2,-0.083 0.447,-0.356 l 0.091,0.07 c -0.245,0.315 -0.595,0.734 -0.937,0.734 -0.2,0 -0.279,-0.133 -0.279,-0.322 a 16.259,16.259 0 0 1 0.552,-2.362 0.294,0.294 0 0 0 0.014,-0.083 c 0,-0.119 -0.056,-0.154 -0.217,-0.154 a 0.834,0.834 0 0 0 -0.2,0.028 l -0.02,-0.112 1.1,-0.154 z m 0.517,-3.1 a 0.316,0.316 0 0 1 -0.336,-0.321 0.343,0.343 0 0 1 0.336,-0.35 0.358,0.358 0 0 1 0.335,0.35 0.328,0.328 0 0 1 -0.335,0.325 z"
         id="path42"
         inkscape:connector-curvature="0"
         style="fill:#231f20" />
      <path
         d="m 57.673,129.828 c 0.371,-0.238 0.531,-0.44 0.531,-0.629 0,-0.07 -0.028,-0.119 -0.139,-0.2 a 0.383,0.383 0 0 1 -0.175,-0.342 0.333,0.333 0 0 1 0.356,-0.308 c 0.252,0 0.405,0.238 0.405,0.518 0,0.391 -0.321,0.782 -0.908,1.089 z"
         id="path44"
         inkscape:connector-curvature="0"
         style="fill:#231f20" />
      <path
         d="m 62.1,128.563 a 0.351,0.351 0 0 0 -0.014,0.084 q 0,0.063 0.1,0.063 c 0.139,0 0.335,-0.245 0.433,-0.392 l 0.077,0.084 c -0.21,0.315 -0.58,0.734 -0.909,0.734 a 0.259,0.259 0 0 1 -0.279,-0.287 1.488,1.488 0 0 1 0.07,-0.447 h -0.036 c -0.517,0.65 -0.936,0.734 -1.194,0.734 -0.511,0 -0.616,-0.517 -0.616,-0.888 0,-0.719 0.721,-2.278 1.8,-2.278 0.4,0 0.559,0.182 0.566,0.35 h 0.014 l 0.37,-1.461 a 0.351,0.351 0 0 0 0.014,-0.084 c 0,-0.091 -0.049,-0.139 -0.23,-0.139 a 1.425,1.425 0 0 0 -0.189,0.02 l -0.028,-0.1 1.09,-0.168 z m -0.5,-2.383 c -0.692,0 -1.258,1.4 -1.258,2.068 0,0.343 0.2,0.462 0.391,0.462 0.489,0 0.951,-0.657 1.146,-1.3 a 2.571,2.571 0 0 0 0.112,-0.734 c 0.003,-0.329 -0.102,-0.496 -0.391,-0.496 z"
         id="path46"
         inkscape:connector-curvature="0"
         style="fill:#231f20" />
    </g>
    <g
       id="g54">
      <path
         d="m 112.12,26.906 a 2.158,2.158 0 0 1 1.451,-0.755 c 0.84,0 1.331,0.827 1.331,1.811 0,1.451 -1.307,3.61 -3.19,3.61 A 2.862,2.862 0 0 1 110.045,31 l 1.727,-6.752 a 0.619,0.619 0 0 0 0.024,-0.132 c -0.012,-0.156 -0.192,-0.252 -0.348,-0.252 a 1.145,1.145 0 0 0 -0.36,0.048 l -0.035,-0.192 1.894,-0.288 -0.875,3.43 z M 110.993,31 c 0,0.084 0.384,0.228 0.659,0.228 1.463,0 2.255,-2.087 2.255,-3.31 0,-0.84 -0.456,-1.1 -0.852,-1.1 -0.863,0 -1.271,1.068 -1.4,1.607 z"
         id="path50"
         inkscape:connector-curvature="0"
         style="fill:#231f20" />
      <path
         d="m 116.088,34.9 a 0.614,0.614 0 0 0 -0.006,0.1 c 0,0.05 0.042,0.07 0.09,0.07 0.154,0 0.2,-0.083 0.448,-0.356 l 0.091,0.07 c -0.245,0.315 -0.595,0.734 -0.937,0.734 -0.2,0 -0.279,-0.133 -0.279,-0.322 a 16.242,16.242 0 0 1 0.551,-2.362 0.268,0.268 0 0 0 0.015,-0.084 c 0,-0.119 -0.057,-0.153 -0.217,-0.153 a 0.828,0.828 0 0 0 -0.2,0.027 l -0.02,-0.111 1.1,-0.154 z m 0.518,-3.1 a 0.316,0.316 0 0 1 -0.336,-0.322 0.342,0.342 0 0 1 0.336,-0.349 0.357,0.357 0 0 1 0.335,0.349 0.329,0.329 0 0 1 -0.335,0.322 z"
         id="path52"
         inkscape:connector-curvature="0"
         style="fill:#231f20" />
    </g>
    <circle
       cx="54.373001"
       cy="29.440001"
       r="12.181"
       stroke-miterlimit="10"
       id="circle56"
       style="fill:none;stroke:#231f20;stroke-width:0.75;stroke-miterlimit:10" />
    <circle
       cx="114.068"
       cy="29.440001"
       r="12.181"
       stroke-miterlimit="10"
       id="circle58"
       style="fill:none;stroke:#231f20;stroke-width:0.75;stroke-miterlimit:10" />
    <circle
       cx="114.068"
       cy="77.206001"
       r="18.941"
       stroke-miterlimit="10"
       id="circle60"
       style="fill:none;stroke:#231f20;stroke-width:1.16600001;stroke-miterlimit:10" />
    <circle
       cx="54.373001"
       cy="58.264"
       r="12.181"
       stroke-miterlimit="10"
       id="circle62"
       style="fill:none;stroke:#231f20;stroke-width:0.75;stroke-miterlimit:10" />
    <circle
       cx="54.373001"
       cy="124.056"
       r="12.181"
       stroke-miterlimit="10"
       id="circle64"
       style="fill:none;stroke:#231f20;stroke-width:0.75;stroke-miterlimit:10" />
    <path
       d="m 121.02,87.971 h -16.392 l 8.625,-11.222 -8.075,-11.266 h 16.436 v 5.523 h -0.66 c -0.462,-2.97 -1.3,-4.071 -4.224,-4.071 h -7.041 l 6.38,8.6 -7.393,9.549 h 9.11 c 2.464,0 3.256,-1.5 3.74,-3.7 h 0.661 z"
       id="path66"
       inkscape:connector-curvature="0"
       style="fill:#231f20" />
    <path
       d="m 178.9,72.609 c 2.267,0 4.291,0.836 4.291,3.41 a 6.416,6.416 0 0 1 -1.76,4.489 6.5,6.5 0 0 1 -4.973,2.024 l -1.058,3.784 h -1.782 l 1.011,-3.784 c -2.376,0 -4.2,-1.232 -4.2,-3.763 a 6.313,6.313 0 0 1 6.359,-6.16 h 0.352 c 0.418,-1.673 0.814,-3.345 1.166,-5.017 h 1.8 z m -1.892,0.637 c -2.861,0 -4.731,2.949 -4.731,5.567 0,1.387 1.013,3.059 2.553,3.059 z m -0.4,8.626 c 2.662,0 4.708,-3.323 4.708,-5.743 0,-1.738 -0.7,-2.905 -2.574,-2.883 z"
       id="path68"
       inkscape:connector-curvature="0"
       style="fill:#231f20" />
    <g
       id="g74">
      <path
         d="m 229.523,79.389 a 33.379,33.379 0 0 0 2.6,-4.048 3.735,3.735 0 0 0 0.616,-1.651 c 0,-0.462 -1.144,-0.682 -1.144,-1.518 a 0.928,0.928 0 0 1 1.034,-0.88 1.245,1.245 0 0 1 1.254,1.364 c 0,1.716 -3.564,7 -4.488,8.164 -1.607,2.024 -3.036,4.18 -4.534,4.18 a 1.221,1.221 0 0 1 -1.231,-1.21 0.9,0.9 0 0 1 0.88,-0.9 c 0.946,0 0.9,0.682 1.254,0.682 0.374,0 1.629,-1.365 2.2,-2.244 l -0.836,-6.91 c -0.11,-0.989 -0.308,-2.31 -1.54,-2.31 a 7.914,7.914 0 0 0 -0.792,0.088 l -0.044,-0.352 3.3,-0.55 a 5.537,5.537 0 0 1 0.858,2.927 z"
         id="path70"
         inkscape:connector-curvature="0"
         style="fill:#231f20" />
      <path
         d="m 233.409,87.311 a 1.048,1.048 0 0 0 -0.012,0.18 c 0,0.09 0.077,0.128 0.167,0.128 0.282,0 0.359,-0.153 0.821,-0.654 l 0.167,0.129 c -0.449,0.577 -1.091,1.347 -1.72,1.347 -0.359,0 -0.514,-0.244 -0.514,-0.591 a 29.836,29.836 0 0 1 1.014,-4.337 0.505,0.505 0 0 0 0.026,-0.154 c 0,-0.218 -0.1,-0.282 -0.4,-0.282 a 1.493,1.493 0 0 0 -0.359,0.051 l -0.038,-0.2 2.027,-0.283 z m 0.95,-5.684 a 0.58,0.58 0 0 1 -0.616,-0.591 0.629,0.629 0 0 1 0.616,-0.641 0.657,0.657 0 0 1 0.616,0.641 0.6,0.6 0 0 1 -0.616,0.591 z"
         id="path72"
         inkscape:connector-curvature="0"
         style="fill:#231f20" />
    </g>
    <rect
       x="158.55099"
       y="58.264"
       width="37.452999"
       height="37.452999"
       stroke-miterlimit="10"
       id="rect76"
       style="fill:none;stroke:#231f20;stroke-width:0.75;stroke-miterlimit:10" />
    <g
       id="g88">
      <line
         x1="25.528"
         y1="28.440001"
         x2="39.928001"
         y2="28.440001"
         stroke-miterlimit="10"
         id="line78"
         style="fill:none;stroke:#231f20;stroke-width:0.75;stroke-miterlimit:10" />
      <g
         id="g84">
        <path
           d="m 25.608,29.85 a 1.41,1.41 0 1 1 1.41,-1.41 1.41,1.41 0 0 1 -1.41,1.41 z"
           id="path80"
           inkscape:connector-curvature="0"
           style="fill:#ffffff" />
        <path
           d="m 25.608,30.037 a 1.6,1.6 0 1 0 -1.6,-1.6 1.6,1.6 0 0 0 1.6,1.6 z m 0,-2.82 a 1.223,1.223 0 1 1 -1.223,1.223 1.223,1.223 0 0 1 1.223,-1.223 z"
           id="path82"
           inkscape:connector-curvature="0"
           style="fill:#231f20" />
      </g>
      <path
         d="m 42.191,28.44 a 11.342,11.342 0 0 0 -3.205,1.783 l 0.645,-1.783 -0.645,-1.783 a 11.342,11.342 0 0 0 3.205,1.783 z"
         id="path86"
         inkscape:connector-curvature="0"
         style="fill:#231f20" />
    </g>
    <g
       id="g100">
      <line
         x1="25.528"
         y1="58.264"
         x2="39.928001"
         y2="58.264"
         stroke-miterlimit="10"
         id="line90"
         style="fill:none;stroke:#231f20;stroke-width:0.75;stroke-miterlimit:10" />
      <g
         id="g96">
        <path
           d="m 25.608,59.674 a 1.41,1.41 0 1 1 1.41,-1.41 1.41,1.41 0 0 1 -1.41,1.41 z"
           id="path92"
           inkscape:connector-curvature="0"
           style="fill:#ffffff" />
        <path
           d="m 25.608,59.862 a 1.6,1.6 0 1 0 -1.6,-1.6 1.6,1.6 0 0 0 1.6,1.6 z m 0,-2.82 a 1.223,1.223 0 1 1 -1.223,1.222 1.223,1.223 0 0 1 1.223,-1.222 z"
           id="path94"
           inkscape:connector-curvature="0"
           style="fill:#231f20" />
      </g>
      <path
         d="m 42.191,58.264 a 11.369,11.369 0 0 0 -3.205,1.784 l 0.645,-1.784 -0.645,-1.783 a 11.318,11.318 0 0 0 3.205,1.783 z"
         id="path98"
         inkscape:connector-curvature="0"
         style="fill:#231f20" />
    </g>
    <g
       id="g112">
      <line
         x1="25.528"
         y1="125.056"
         x2="39.928001"
         y2="125.056"
         stroke-miterlimit="10"
         id="line102"
         style="fill:none;stroke:#231f20;stroke-width:0.75;stroke-miterlimit:10" />
      <g
         id="g108">
        <path
           d="m 25.608,126.466 a 1.41,1.41 0 1 1 1.41,-1.41 1.41,1.41 0 0 1 -1.41,1.41 z"
           id="path104"
           inkscape:connector-curvature="0"
           style="fill:#ffffff" />
        <path
           d="m 25.608,126.654 a 1.6,1.6 0 1 0 -1.6,-1.6 1.6,1.6 0 0 0 1.6,1.6 z m 0,-2.82 a 1.223,1.223 0 1 1 -1.223,1.222 1.223,1.223 0 0 1 1.223,-1.222 z"
           id="path106"
           inkscape:connector-curvature="0"
           style="fill:#231f20" />
      </g>
      <path
         d="m 42.191,125.056 a 11.345,11.345 0 0 0 -3.205,1.784 l 0.645,-1.784 -0.645,-1.783 a 11.342,11.342 0 0 0 3.205,1.783 z"
         id="path110"
         inkscape:connector-curvature="0"
         style="fill:#231f20" />
    </g>
    <g
       id="g118">
      <polyline
         points="66.554 29.44 80.463 29.44 101.804 59.912"
         stroke-miterlimit="10"
         id="polyline114"
         style="fill:none;stroke:#231f20;stroke-width:0.75;stroke-miterlimit:10" />
      <path
         d="m 103.1,61.766 a 11.347,11.347 0 0 0 -3.3,-1.6 l 1.831,-0.5 1.091,-1.551 a 11.31,11.31 0 0 0 0.378,3.651 z"
         id="path116"
         inkscape:connector-curvature="0"
         style="fill:#231f20" />
    </g>
    <g
       id="g124">
      <polyline
         points="66.554 58.264 80.463 58.264 95.933 66.228"
         stroke-miterlimit="10"
         id="polyline120"
         style="fill:none;stroke:#231f20;stroke-width:0.75;stroke-miterlimit:10" />
      <path
         d="m 97.945,67.264 a 11.337,11.337 0 0 0 -3.666,0.119 l 1.39,-1.291 0.243,-1.88 a 11.32,11.32 0 0 0 2.033,3.052 z"
         id="path122"
         inkscape:connector-curvature="0"
         style="fill:#231f20" />
    </g>
    <g
       id="g130">
      <polyline
         points="66.554 125.056 80.463 125.056 100.646 94.247"
         stroke-miterlimit="10"
         id="polyline126"
         style="fill:none;stroke:#231f20;stroke-width:0.75;stroke-miterlimit:10" />
      <path
         d="m 101.886,92.354 a 11.322,11.322 0 0 0 -0.264,3.659 L 100.483,94.5 98.638,94.062 a 11.32,11.32 0 0 0 3.248,-1.708 z"
         id="path128"
         inkscape:connector-curvature="0"
         style="fill:#231f20" />
    </g>
    <g
       id="g136">
      <polyline
         points="114.068 41.621 114.068 48.441 114.068 56.001"
         stroke-miterlimit="10"
         id="polyline132"
         style="fill:none;stroke:#231f20;stroke-width:0.75;stroke-miterlimit:10" />
      <path
         d="m 114.068,58.264 a 11.356,11.356 0 0 0 -1.784,-3.205 l 1.784,0.645 1.783,-0.645 a 11.3,11.3 0 0 0 -1.783,3.205 z"
         id="path134"
         inkscape:connector-curvature="0"
         style="fill:#231f20" />
    </g>
    <g
       id="g142">
      <polyline
         points="133.009 76.991 143.631 76.991 156.288 77.173"
         stroke-miterlimit="10"
         id="polyline138"
         style="fill:none;stroke:#231f20;stroke-width:0.75;stroke-miterlimit:10" />
      <path
         d="m 158.551,77.206 a 11.32,11.32 0 0 0 -3.23,1.737 l 0.67,-1.774 -0.619,-1.792 a 11.323,11.323 0 0 0 3.179,1.829 z"
         id="path140"
         inkscape:connector-curvature="0"
         style="fill:#231f20" />
    </g>
    <g
       id="g148">
      <polyline
         points="196.005 76.884 206.626 76.884 219.284 77.066"
         stroke-miterlimit="10"
         id="polyline144"
         style="fill:none;stroke:#231f20;stroke-width:0.75;stroke-miterlimit:10" />
      <path
         d="m 221.547,77.1 a 11.315,11.315 0 0 0 -3.231,1.738 l 0.671,-1.774 -0.619,-1.793 a 11.309,11.309 0 0 0 3.179,1.829 z"
         id="path146"
         inkscape:connector-curvature="0"
         style="fill:#231f20" />
    </g>
    <g
       id="g162">
      <path
         d="m 13.841,79.4 a 1.519,1.519 0 0 1 0.193,-0.769 1.33,1.33 0 0 1 0.537,-0.517 1.6,1.6 0 0 1 0.769,-0.184 1.468,1.468 0 0 1 0.738,0.193 1.433,1.433 0 0 1 0.537,0.542 1.631,1.631 0 0 1 0.012,1.543 1.283,1.283 0 0 1 -0.525,0.515 1.588,1.588 0 0 1 -0.766,0.181 1.528,1.528 0 0 1 -0.767,-0.193 1.374,1.374 0 0 1 -0.535,-0.537 1.56,1.56 0 0 1 -0.193,-0.774 z"
         id="path150"
         inkscape:connector-curvature="0"
         style="fill:#231f20" />
      <path
         d="m 13.841,83.837 a 1.517,1.517 0 0 1 0.193,-0.769 1.332,1.332 0 0 1 0.537,-0.518 1.614,1.614 0 0 1 0.769,-0.183 1.458,1.458 0 0 1 0.738,0.193 1.426,1.426 0 0 1 0.537,0.542 1.631,1.631 0 0 1 0.012,1.543 1.289,1.289 0 0 1 -0.525,0.515 1.588,1.588 0 0 1 -0.766,0.181 1.538,1.538 0 0 1 -0.767,-0.193 1.388,1.388 0 0 1 -0.535,-0.537 1.565,1.565 0 0 1 -0.193,-0.774 z"
         id="path152"
         inkscape:connector-curvature="0"
         style="fill:#231f20" />
      <path
         d="m 13.841,88.27 a 1.519,1.519 0 0 1 0.193,-0.769 1.33,1.33 0 0 1 0.537,-0.517 1.614,1.614 0 0 1 0.769,-0.183 1.467,1.467 0 0 1 0.738,0.192 1.441,1.441 0 0 1 0.537,0.542 1.631,1.631 0 0 1 0.012,1.543 1.285,1.285 0 0 1 -0.525,0.516 1.6,1.6 0 0 1 -0.766,0.18 1.528,1.528 0 0 1 -0.767,-0.193 1.374,1.374 0 0 1 -0.535,-0.537 1.56,1.56 0 0 1 -0.193,-0.774 z"
         id="path154"
         inkscape:connector-curvature="0"
         style="fill:#231f20" />
      <path
         d="m 13.841,92.7 a 1.517,1.517 0 0 1 0.193,-0.769 1.332,1.332 0 0 1 0.537,-0.518 1.614,1.614 0 0 1 0.769,-0.183 1.468,1.468 0 0 1 0.738,0.193 1.426,1.426 0 0 1 0.537,0.542 1.631,1.631 0 0 1 0.012,1.543 1.283,1.283 0 0 1 -0.525,0.515 1.588,1.588 0 0 1 -0.766,0.181 1.538,1.538 0 0 1 -0.767,-0.193 1.381,1.381 0 0 1 -0.535,-0.537 1.562,1.562 0 0 1 -0.193,-0.774 z"
         id="path156"
         inkscape:connector-curvature="0"
         style="fill:#231f20" />
      <path
         d="m 13.841,97.138 a 1.523,1.523 0 0 1 0.193,-0.77 1.33,1.33 0 0 1 0.537,-0.517 1.614,1.614 0 0 1 0.769,-0.183 1.458,1.458 0 0 1 0.738,0.193 1.426,1.426 0 0 1 0.537,0.542 1.631,1.631 0 0 1 0.012,1.543 1.289,1.289 0 0 1 -0.525,0.515 1.6,1.6 0 0 1 -0.766,0.18 1.538,1.538 0 0 1 -0.767,-0.192 1.383,1.383 0 0 1 -0.535,-0.538 1.558,1.558 0 0 1 -0.193,-0.773 z"
         id="path158"
         inkscape:connector-curvature="0"
         style="fill:#231f20" />
      <path
         d="m 13.841,101.571 a 1.519,1.519 0 0 1 0.193,-0.769 1.339,1.339 0 0 1 0.537,-0.518 1.614,1.614 0 0 1 0.769,-0.183 1.468,1.468 0 0 1 0.738,0.193 1.433,1.433 0 0 1 0.537,0.542 1.631,1.631 0 0 1 0.012,1.543 1.283,1.283 0 0 1 -0.525,0.515 1.588,1.588 0 0 1 -0.766,0.181 1.528,1.528 0 0 1 -0.767,-0.193 1.374,1.374 0 0 1 -0.535,-0.537 1.56,1.56 0 0 1 -0.193,-0.774 z"
         id="path160"
         inkscape:connector-curvature="0"
         style="fill:#231f20" />
    </g>
    <g
       id="g176">
      <path
         d="m 49.96,79.4 a 1.509,1.509 0 0 1 0.193,-0.769 1.324,1.324 0 0 1 0.537,-0.517 1.6,1.6 0 0 1 0.769,-0.184 1.461,1.461 0 0 1 0.737,0.193 1.426,1.426 0 0 1 0.537,0.542 1.525,1.525 0 0 1 0.2,0.774 1.545,1.545 0 0 1 -0.188,0.769 1.3,1.3 0 0 1 -0.525,0.515 1.592,1.592 0 0 1 -0.767,0.181 A 1.527,1.527 0 0 1 50.687,80.711 1.368,1.368 0 0 1 50.152,80.174 1.549,1.549 0 0 1 49.96,79.4 Z"
         id="path164"
         inkscape:connector-curvature="0"
         style="fill:#231f20" />
      <path
         d="m 49.96,83.837 a 1.507,1.507 0 0 1 0.193,-0.769 1.326,1.326 0 0 1 0.537,-0.518 1.611,1.611 0 0 1 0.769,-0.183 1.451,1.451 0 0 1 0.737,0.193 1.419,1.419 0 0 1 0.537,0.542 1.525,1.525 0 0 1 0.2,0.774 1.548,1.548 0 0 1 -0.188,0.769 1.3,1.3 0 0 1 -0.525,0.515 1.592,1.592 0 0 1 -0.767,0.181 1.537,1.537 0 0 1 -0.766,-0.193 1.381,1.381 0 0 1 -0.535,-0.537 1.554,1.554 0 0 1 -0.192,-0.774 z"
         id="path166"
         inkscape:connector-curvature="0"
         style="fill:#231f20" />
      <path
         d="m 49.96,88.27 a 1.509,1.509 0 0 1 0.193,-0.769 1.324,1.324 0 0 1 0.537,-0.517 1.611,1.611 0 0 1 0.769,-0.183 1.46,1.46 0 0 1 0.737,0.192 1.433,1.433 0 0 1 0.537,0.542 1.525,1.525 0 0 1 0.2,0.774 1.545,1.545 0 0 1 -0.188,0.769 1.3,1.3 0 0 1 -0.525,0.516 1.6,1.6 0 0 1 -0.767,0.18 1.527,1.527 0 0 1 -0.766,-0.193 1.368,1.368 0 0 1 -0.535,-0.537 1.549,1.549 0 0 1 -0.192,-0.774 z"
         id="path168"
         inkscape:connector-curvature="0"
         style="fill:#231f20" />
      <path
         d="m 49.96,92.7 a 1.507,1.507 0 0 1 0.193,-0.769 1.326,1.326 0 0 1 0.537,-0.518 1.611,1.611 0 0 1 0.769,-0.183 1.461,1.461 0 0 1 0.737,0.193 1.419,1.419 0 0 1 0.537,0.542 1.525,1.525 0 0 1 0.2,0.774 1.545,1.545 0 0 1 -0.188,0.769 1.3,1.3 0 0 1 -0.525,0.515 1.592,1.592 0 0 1 -0.767,0.181 A 1.537,1.537 0 0 1 50.687,94.011 1.374,1.374 0 0 1 50.152,93.474 1.552,1.552 0 0 1 49.96,92.7 Z"
         id="path170"
         inkscape:connector-curvature="0"
         style="fill:#231f20" />
      <path
         d="m 49.96,97.138 a 1.513,1.513 0 0 1 0.193,-0.77 1.324,1.324 0 0 1 0.537,-0.517 1.611,1.611 0 0 1 0.769,-0.183 1.451,1.451 0 0 1 0.737,0.193 1.419,1.419 0 0 1 0.537,0.542 1.522,1.522 0 0 1 0.2,0.774 1.551,1.551 0 0 1 -0.188,0.769 1.3,1.3 0 0 1 -0.525,0.515 1.6,1.6 0 0 1 -0.767,0.18 1.537,1.537 0 0 1 -0.766,-0.192 1.377,1.377 0 0 1 -0.535,-0.538 1.548,1.548 0 0 1 -0.192,-0.773 z"
         id="path172"
         inkscape:connector-curvature="0"
         style="fill:#231f20" />
      <path
         d="m 49.96,101.571 a 1.509,1.509 0 0 1 0.193,-0.769 1.333,1.333 0 0 1 0.537,-0.518 1.611,1.611 0 0 1 0.769,-0.183 1.461,1.461 0 0 1 0.737,0.193 1.426,1.426 0 0 1 0.537,0.542 1.525,1.525 0 0 1 0.2,0.774 1.545,1.545 0 0 1 -0.188,0.769 1.3,1.3 0 0 1 -0.525,0.515 1.592,1.592 0 0 1 -0.767,0.181 1.527,1.527 0 0 1 -0.766,-0.193 1.368,1.368 0 0 1 -0.535,-0.537 1.549,1.549 0 0 1 -0.192,-0.774 z"
         id="path174"
         inkscape:connector-curvature="0"
         style="fill:#231f20" />
    </g>
    <g
       id="g192"
       style="display:none">
      <path
         d="m 46.473,142.577 -1.231,5.838 a 0.317,0.317 0 0 1 -0.106,0.163 0.3,0.3 0 0 1 -0.2,0.066 h -0.879 a 0.311,0.311 0 0 1 -0.2,-0.066 0.267,0.267 0 0 1 -0.1,-0.171 l -0.95,-4.563 c -0.023,-0.118 -0.047,-0.233 -0.07,-0.348 -0.023,-0.115 -0.047,-0.227 -0.07,-0.338 h -0.185 q -0.035,0.167 -0.066,0.342 c -0.02,0.118 -0.042,0.232 -0.066,0.344 l -0.941,4.563 a 0.3,0.3 0 0 1 -0.11,0.171 0.306,0.306 0 0 1 -0.2,0.066 H 40.21 a 0.306,0.306 0 0 1 -0.2,-0.066 0.258,0.258 0 0 1 -0.1,-0.163 l -1.231,-5.838 H 39.5 l 0.949,4.73 c 0.023,0.112 0.044,0.23 0.061,0.356 0.017,0.126 0.038,0.257 0.062,0.392 h 0.2 c 0.023,-0.135 0.047,-0.264 0.071,-0.387 0.024,-0.123 0.047,-0.243 0.07,-0.361 l 0.941,-4.475 a 0.285,0.285 0 0 1 0.1,-0.184 0.3,0.3 0 0 1 0.2,-0.071 H 43 a 0.28,0.28 0 0 1 0.193,0.071 0.336,0.336 0 0 1 0.105,0.184 l 0.941,4.475 q 0.045,0.194 0.075,0.378 c 0.021,0.123 0.037,0.247 0.048,0.37 h 0.22 c 0.018,-0.123 0.035,-0.248 0.053,-0.374 0.018,-0.126 0.038,-0.248 0.061,-0.365 l 0.959,-4.739 z"
         id="path178"
         inkscape:connector-curvature="0"
         style="fill:#231f20" />
      <path
         d="m 49.031,144.257 a 2.24,2.24 0 0 1 1.4,0.351 1.268,1.268 0 0 1 0.435,1.047 1.4,1.4 0 0 1 -0.238,0.892 0.923,0.923 0 0 1 -0.782,0.321 h -2.5 v -0.581 h 2.3 a 0.367,0.367 0 0 0 0.378,-0.2 1.054,1.054 0 0 0 0.088,-0.435 0.705,0.705 0 0 0 -0.246,-0.589 1.4,1.4 0 0 0 -0.809,-0.177 1.636,1.636 0 0 0 -0.734,0.137 0.765,0.765 0 0 0 -0.378,0.475 3.193,3.193 0 0 0 -0.11,0.945 3.091,3.091 0 0 0 0.137,1.046 0.82,0.82 0 0 0 0.435,0.493 1.98,1.98 0 0 0 0.791,0.132 c 0.229,0 0.479,-0.011 0.752,-0.031 0.273,-0.02 0.517,-0.046 0.734,-0.075 l 0.079,0.5 a 2.635,2.635 0 0 1 -0.5,0.132 q -0.294,0.053 -0.606,0.079 c -0.208,0.018 -0.395,0.026 -0.559,0.026 a 2.663,2.663 0 0 1 -1.187,-0.224 1.355,1.355 0 0 1 -0.655,-0.721 4.351,4.351 0 0 1 0,-2.646 1.291,1.291 0 0 1 0.642,-0.695 2.635,2.635 0 0 1 1.133,-0.202 z"
         id="path180"
         inkscape:connector-curvature="0"
         style="fill:#231f20" />
      <path
         d="m 52.574,142.542 a 0.2,0.2 0 0 1 0.229,0.229 v 0.5 a 0.2,0.2 0 0 1 -0.229,0.228 h -0.351 a 0.2,0.2 0 0 1 -0.229,-0.228 v -0.5 a 0.2,0.2 0 0 1 0.229,-0.229 z m 0.194,1.82 v 4.282 h -0.739 v -4.282 z"
         id="path182"
         inkscape:connector-curvature="0"
         style="fill:#231f20" />
      <path
         d="m 54.658,146.7 0.43,0.062 a 0.651,0.651 0 0 0 -0.2,0.32 0.409,0.409 0 0 0 0.387,0.55 l 1.6,0.255 a 1.3,1.3 0 0 1 0.844,0.378 1.268,1.268 0 0 1 0.238,0.826 1.439,1.439 0 0 1 -0.189,0.792 1.057,1.057 0 0 1 -0.638,0.413 4.763,4.763 0 0 1 -1.213,0.123 6.069,6.069 0 0 1 -0.976,-0.066 1.7,1.7 0 0 1 -0.637,-0.22 0.871,0.871 0 0 1 -0.348,-0.4 1.574,1.574 0 0 1 -0.105,-0.616 1.177,1.177 0 0 1 0.083,-0.47 0.926,0.926 0 0 1 0.264,-0.338 2.316,2.316 0 0 1 0.471,-0.29 l 0.527,-0.291 0.343,0.123 -0.431,0.326 a 2.234,2.234 0 0 0 -0.294,0.259 0.848,0.848 0 0 0 -0.176,0.273 0.944,0.944 0 0 0 -0.057,0.347 0.775,0.775 0 0 0 0.114,0.457 0.622,0.622 0 0 0 0.4,0.216 4.436,4.436 0 0 0 0.809,0.057 4.046,4.046 0 0 0 0.8,-0.062 0.636,0.636 0 0 0 0.4,-0.219 0.755,0.755 0 0 0 0.115,-0.449 0.769,0.769 0 0 0 -0.057,-0.334 0.383,0.383 0 0 0 -0.216,-0.176 2.214,2.214 0 0 0 -0.466,-0.1 l -1.538,-0.211 a 0.806,0.806 0 0 1 -0.435,-0.176 0.716,0.716 0 0 1 -0.224,-0.334 0.886,0.886 0 0 1 -0.036,-0.392 0.952,0.952 0 0 1 0.132,-0.369 0.706,0.706 0 0 1 0.279,-0.264 z m 1.213,-2.444 a 3.4,3.4 0 0 1 1.086,0.14 1.014,1.014 0 0 1 0.571,0.44 1.554,1.554 0 0 1 0.172,0.782 1.538,1.538 0 0 1 -0.172,0.769 1.017,1.017 0 0 1 -0.576,0.449 3.309,3.309 0 0 1 -1.09,0.145 3.275,3.275 0 0 1 -1.086,-0.145 1.024,1.024 0 0 1 -0.571,-0.444 1.515,1.515 0 0 1 -0.172,-0.765 1.585,1.585 0 0 1 0.172,-0.787 1.006,1.006 0 0 1 0.576,-0.444 3.438,3.438 0 0 1 1.09,-0.139 z m -0.009,0.571 a 1.6,1.6 0 0 0 -0.892,0.181 0.863,0.863 0 0 0 0,1.217 2.266,2.266 0 0 0 1.789,0 0.876,0.876 0 0 0 0,-1.217 1.594,1.594 0 0 0 -0.897,-0.18 z m 2.339,-0.466 -0.044,0.413 -1.091,0.088 -0.307,-0.5 z"
         id="path184"
         inkscape:connector-curvature="0"
         style="fill:#231f20" />
      <path
         d="m 59.827,142.49 0.009,1.7 c 0,0.194 -0.007,0.375 -0.022,0.545 a 3.429,3.429 0 0 1 -0.066,0.449 l 0.079,0.132 v 3.332 H 59.08 v -6.158 z m 1.855,1.767 a 1.034,1.034 0 0 1 1.161,1.178 v 3.209 h -0.756 v -3 a 0.949,0.949 0 0 0 -0.137,-0.593 0.583,0.583 0 0 0 -0.47,-0.164 1.845,1.845 0 0 0 -0.791,0.186 8.022,8.022 0 0 0 -0.941,0.536 l -0.035,-0.536 a 5.149,5.149 0 0 1 0.994,-0.6 2.383,2.383 0 0 1 0.975,-0.216 z"
         id="path186"
         inkscape:connector-curvature="0"
         style="fill:#231f20" />
      <path
         d="m 66.624,144.362 v 0.589 H 63.74 v -0.545 l 0.844,-0.044 z M 65.261,143.1 v 4.37 a 0.6,0.6 0 0 0 0.132,0.439 0.62,0.62 0 0 0 0.448,0.132 h 0.651 l 0.088,0.572 a 3.2,3.2 0 0 1 -0.326,0.061 c -0.123,0.018 -0.243,0.031 -0.36,0.04 -0.117,0.009 -0.211,0.013 -0.282,0.013 a 1.069,1.069 0 0 1 -0.817,-0.3 1.208,1.208 0 0 1 -0.281,-0.862 V 143.1 Z"
         id="path188"
         inkscape:connector-curvature="0"
         style="fill:#231f20" />
      <path
         d="m 68.962,144.257 c 0.187,0 0.387,0.006 0.6,0.017 0.213,0.011 0.421,0.027 0.629,0.044 0.208,0.017 0.4,0.041 0.576,0.07 l -0.062,0.545 c -0.27,-0.011 -0.541,-0.022 -0.813,-0.03 -0.272,-0.008 -0.544,-0.014 -0.813,-0.014 a 4.895,4.895 0 0 0 -0.625,0.018 0.5,0.5 0 0 0 -0.329,0.141 0.58,0.58 0 0 0 -0.1,0.387 0.494,0.494 0 0 0 0.158,0.439 1.41,1.41 0 0 0 0.466,0.176 l 1.248,0.281 a 1.511,1.511 0 0 1 0.752,0.379 1.131,1.131 0 0 1 0.242,0.8 1.312,1.312 0 0 1 -0.2,0.791 0.981,0.981 0 0 1 -0.6,0.352 5.006,5.006 0 0 1 -1.028,0.088 q -0.229,0 -0.681,-0.018 a 8.552,8.552 0 0 1 -1,-0.105 l 0.053,-0.545 c 0.141,0 0.291,0.013 0.449,0.022 0.158,0.009 0.324,0.013 0.5,0.013 h 0.531 a 5.071,5.071 0 0 0 0.757,-0.044 0.647,0.647 0 0 0 0.386,-0.172 0.557,0.557 0 0 0 0.115,-0.382 0.444,0.444 0 0 0 -0.185,-0.422 1.8,1.8 0 0 0 -0.492,-0.176 l -1.231,-0.281 a 1.741,1.741 0 0 1 -0.563,-0.234 0.837,0.837 0 0 1 -0.308,-0.378 1.54,1.54 0 0 1 -0.1,-0.584 1.337,1.337 0 0 1 0.175,-0.756 0.879,0.879 0 0 1 0.546,-0.343 3.923,3.923 0 0 1 0.947,-0.079 z"
         id="path190"
         inkscape:connector-curvature="0"
         style="fill:#231f20" />
    </g>
    <g
       id="g230"
       style="display:none">
      <path
         d="m 160.231,137.158 a 0.307,0.307 0 0 1 0.184,0.057 0.276,0.276 0 0 1 0.106,0.154 l 1.952,5.855 h -0.8 l -1.573,-4.976 c -0.024,-0.082 -0.049,-0.165 -0.075,-0.251 -0.026,-0.086 -0.051,-0.165 -0.075,-0.241 h -0.25 c -0.023,0.076 -0.047,0.157 -0.07,0.241 -0.023,0.084 -0.05,0.169 -0.079,0.251 l -1.574,4.976 h -0.8 l 1.951,-5.855 a 0.276,0.276 0 0 1 0.106,-0.154 0.31,0.31 0 0 1 0.185,-0.057 z m 1.125,3.5 v 0.669 h -3.077 v -0.669 z"
         id="path194"
         inkscape:connector-curvature="0"
         style="fill:#231f20" />
      <path
         d="m 165.075,138.837 c 0.129,0 0.273,0.006 0.431,0.018 0.158,0.012 0.321,0.032 0.488,0.061 a 2.729,2.729 0 0 1 0.462,0.123 l -0.1,0.484 q -0.291,-0.027 -0.611,-0.04 c -0.214,-0.009 -0.4,-0.013 -0.55,-0.013 a 1.923,1.923 0 0 0 -0.809,0.141 0.839,0.839 0 0 0 -0.43,0.492 2.875,2.875 0 0 0 -0.132,0.976 2.909,2.909 0 0 0 0.132,0.98 0.834,0.834 0 0 0 0.43,0.5 1.923,1.923 0 0 0 0.809,0.141 c 0.088,0 0.2,0 0.343,-0.009 0.143,-0.009 0.292,-0.014 0.453,-0.026 0.161,-0.012 0.315,-0.029 0.462,-0.053 l 0.079,0.5 a 3.651,3.651 0 0 1 -0.708,0.167 5.6,5.6 0 0 1 -0.761,0.053 2.71,2.71 0 0 1 -1.187,-0.22 1.3,1.3 0 0 1 -0.646,-0.712 3.609,3.609 0 0 1 -0.2,-1.319 3.552,3.552 0 0 1 0.2,-1.318 1.3,1.3 0 0 1 0.651,-0.708 2.758,2.758 0 0 1 1.194,-0.218 z"
         id="path196"
         inkscape:connector-curvature="0"
         style="fill:#231f20" />
      <path
         d="m 169.981,138.943 v 0.589 H 167.1 v -0.545 l 0.844,-0.044 z m -1.363,-1.266 v 4.369 a 0.606,0.606 0 0 0 0.132,0.44 0.618,0.618 0 0 0 0.448,0.132 h 0.651 l 0.088,0.571 a 3.234,3.234 0 0 1 -0.326,0.062 c -0.123,0.017 -0.243,0.031 -0.36,0.039 -0.117,0.008 -0.211,0.014 -0.282,0.014 a 1.069,1.069 0 0 1 -0.817,-0.3 1.211,1.211 0 0 1 -0.281,-0.862 v -4.466 z"
         id="path198"
         inkscape:connector-curvature="0"
         style="fill:#231f20" />
      <path
         d="m 171.476,137.123 a 0.2,0.2 0 0 1 0.228,0.228 v 0.5 a 0.2,0.2 0 0 1 -0.228,0.229 h -0.352 a 0.2,0.2 0 0 1 -0.229,-0.229 v -0.5 a 0.2,0.2 0 0 1 0.229,-0.228 z m 0.193,1.82 v 4.281 h -0.739 v -4.281 z"
         id="path200"
         inkscape:connector-curvature="0"
         style="fill:#231f20" />
      <path
         d="m 176.882,138.943 -1.565,4.1 a 0.3,0.3 0 0 1 -0.1,0.136 0.268,0.268 0 0 1 -0.162,0.048 h -0.677 a 0.276,0.276 0 0 1 -0.159,-0.048 0.288,0.288 0 0 1 -0.1,-0.136 l -1.565,-4.1 h 0.8 l 1.055,3 q 0.071,0.184 0.132,0.378 0.061,0.194 0.123,0.369 h 0.115 c 0.046,-0.123 0.092,-0.247 0.136,-0.374 0.044,-0.127 0.086,-0.25 0.127,-0.373 l 1.055,-3 z"
         id="path202"
         inkscape:connector-curvature="0"
         style="fill:#231f20" />
      <path
         d="m 180.83,140.587 -0.009,0.563 -2.048,0.009 a 0.542,0.542 0 0 0 -0.431,0.162 0.667,0.667 0 0 0 -0.123,0.426 v 0.273 a 0.656,0.656 0 0 0 0.158,0.488 0.709,0.709 0 0 0 0.51,0.154 2.01,2.01 0 0 0 0.558,-0.092 2.672,2.672 0 0 0 0.629,-0.286 2.53,2.53 0 0 0 0.58,-0.493 v 0.554 a 2.367,2.367 0 0 1 -0.277,0.286 2.919,2.919 0 0 1 -0.431,0.317 2.667,2.667 0 0 1 -0.553,0.254 2.05,2.05 0 0 1 -0.656,0.1 1.554,1.554 0 0 1 -0.668,-0.137 1.033,1.033 0 0 1 -0.453,-0.4 1.245,1.245 0 0 1 -0.162,-0.655 v -0.466 a 0.987,0.987 0 0 1 0.312,-0.778 1.272,1.272 0 0 1 0.875,-0.277 z m -1.117,-1.75 a 2.239,2.239 0 0 1 0.805,0.128 0.94,0.94 0 0 1 0.5,0.426 1.691,1.691 0 0 1 0.167,0.818 v 3.015 h -0.59 l -0.114,-0.932 -0.053,-0.1 v -1.987 a 0.756,0.756 0 0 0 -0.18,-0.567 1.017,1.017 0 0 0 -0.69,-0.172 q -0.335,0 -0.84,0.035 c -0.337,0.024 -0.669,0.05 -1,0.08 l -0.07,-0.554 c 0.2,-0.036 0.418,-0.068 0.655,-0.1 0.237,-0.032 0.479,-0.053 0.725,-0.07 0.246,-0.017 0.472,-0.02 0.685,-0.02 z"
         id="path204"
         inkscape:connector-curvature="0"
         style="fill:#231f20" />
      <path
         d="m 184.953,138.943 v 0.589 h -2.884 v -0.545 l 0.845,-0.044 z m -1.363,-1.266 v 4.369 a 0.606,0.606 0 0 0 0.132,0.44 0.623,0.623 0 0 0 0.449,0.132 h 0.65 l 0.088,0.571 a 3.211,3.211 0 0 1 -0.325,0.062 c -0.123,0.017 -0.243,0.031 -0.36,0.039 -0.117,0.008 -0.212,0.014 -0.282,0.014 a 1.069,1.069 0 0 1 -0.817,-0.3 1.211,1.211 0 0 1 -0.282,-0.862 v -4.466 z"
         id="path206"
         inkscape:connector-curvature="0"
         style="fill:#231f20" />
      <path
         d="m 186.448,137.123 a 0.2,0.2 0 0 1 0.229,0.228 v 0.5 a 0.2,0.2 0 0 1 -0.229,0.229 H 186.1 a 0.2,0.2 0 0 1 -0.229,-0.229 v -0.5 a 0.2,0.2 0 0 1 0.229,-0.228 z m 0.194,1.82 v 4.281 H 185.9 v -4.281 z"
         id="path208"
         inkscape:connector-curvature="0"
         style="fill:#231f20" />
      <path
         d="m 189.859,138.837 a 2.679,2.679 0 0 1 1.183,0.22 1.284,1.284 0 0 1 0.637,0.717 4.547,4.547 0 0 1 0,2.628 1.284,1.284 0 0 1 -0.637,0.717 3.264,3.264 0 0 1 -2.356,0 1.3,1.3 0 0 1 -0.642,-0.717 4.459,4.459 0 0 1 0,-2.628 1.3,1.3 0 0 1 0.642,-0.717 2.653,2.653 0 0 1 1.173,-0.22 z m 0,0.633 a 1.537,1.537 0 0 0 -0.734,0.146 0.817,0.817 0 0 0 -0.382,0.5 4.2,4.2 0 0 0 0,1.952 0.822,0.822 0 0 0 0.382,0.5 1.55,1.55 0 0 0 0.734,0.145 1.58,1.58 0 0 0 0.739,-0.145 0.82,0.82 0 0 0 0.386,-0.5 4.2,4.2 0 0 0 0,-1.952 0.815,0.815 0 0 0 -0.386,-0.5 1.567,1.567 0 0 0 -0.739,-0.146 z"
         id="path210"
         inkscape:connector-curvature="0"
         style="fill:#231f20" />
      <path
         d="m 193.675,138.943 0.061,0.818 0.053,0.131 v 3.332 h -0.747 v -4.281 z m 1.969,-0.106 a 1.034,1.034 0 0 1 1.161,1.178 v 3.209 h -0.747 v -3 a 0.934,0.934 0 0 0 -0.141,-0.593 0.6,0.6 0 0 0 -0.475,-0.163 1.787,1.787 0 0 0 -0.791,0.194 q -0.4,0.194 -0.941,0.527 l -0.035,-0.536 a 4.71,4.71 0 0 1 0.994,-0.6 2.411,2.411 0 0 1 0.975,-0.216 z"
         id="path212"
         inkscape:connector-curvature="0"
         style="fill:#231f20" />
      <path
         d="m 161.87,146.163 q 0.423,0 0.853,0 c 0.287,0 0.571,0.008 0.853,0.013 0.282,0.005 0.551,0.021 0.809,0.044 l -0.044,0.6 h -2.277 a 0.631,0.631 0 0 0 -0.449,0.136 0.606,0.606 0 0 0 -0.14,0.445 v 4.835 H 160.7 v -4.985 a 1.027,1.027 0 0 1 0.317,-0.8 1.221,1.221 0 0 1 0.853,-0.288 z m -1.019,2.646 h 3.156 v 0.624 h -3.156 z"
         id="path214"
         inkscape:connector-curvature="0"
         style="fill:#231f20" />
      <path
         d="m 165.959,147.956 v 3.007 a 0.8,0.8 0 0 0 0.149,0.572 0.7,0.7 0 0 0 0.527,0.167 1.64,1.64 0 0 0 0.717,-0.171 8.48,8.48 0 0 0 0.858,-0.5 l 0.1,0.519 a 4.422,4.422 0 0 1 -0.971,0.6 2.4,2.4 0 0 1 -0.955,0.2 1.037,1.037 0 0 1 -1.169,-1.178 v -3.218 z m 2.919,0 v 4.282 h -0.6 l -0.07,-0.809 -0.08,-0.132 v -3.341 z"
         id="path216"
         inkscape:connector-curvature="0"
         style="fill:#231f20" />
      <path
         d="m 170.882,147.956 0.061,0.818 0.053,0.132 v 3.332 h -0.747 v -4.282 z m 1.969,-0.1 a 1.034,1.034 0 0 1 1.161,1.178 v 3.209 h -0.747 v -3 a 0.932,0.932 0 0 0 -0.141,-0.593 0.6,0.6 0 0 0 -0.475,-0.163 1.787,1.787 0 0 0 -0.791,0.194 q -0.4,0.192 -0.941,0.527 l -0.035,-0.536 a 4.716,4.716 0 0 1 0.994,-0.6 2.426,2.426 0 0 1 0.975,-0.221 z"
         id="path218"
         inkscape:connector-curvature="0"
         style="fill:#231f20" />
      <path
         d="m 177.186,147.851 c 0.129,0 0.273,0.006 0.431,0.017 0.158,0.011 0.321,0.033 0.488,0.062 a 2.52,2.52 0 0 1 0.461,0.123 l -0.1,0.483 q -0.291,-0.025 -0.612,-0.039 c -0.213,-0.009 -0.4,-0.013 -0.549,-0.013 a 1.923,1.923 0 0 0 -0.809,0.141 0.843,0.843 0 0 0 -0.431,0.492 2.9,2.9 0 0 0 -0.131,0.976 2.938,2.938 0 0 0 0.131,0.98 0.845,0.845 0 0 0 0.431,0.5 1.923,1.923 0 0 0 0.809,0.141 c 0.088,0 0.2,0 0.343,-0.009 0.143,-0.009 0.291,-0.015 0.453,-0.026 0.162,-0.011 0.314,-0.03 0.461,-0.053 l 0.08,0.5 a 3.668,3.668 0 0 1 -0.708,0.167 5.6,5.6 0 0 1 -0.761,0.053 2.724,2.724 0 0 1 -1.187,-0.22 1.3,1.3 0 0 1 -0.646,-0.713 3.6,3.6 0 0 1 -0.2,-1.318 3.537,3.537 0 0 1 0.2,-1.319 1.3,1.3 0 0 1 0.651,-0.708 2.772,2.772 0 0 1 1.195,-0.217 z"
         id="path220"
         inkscape:connector-curvature="0"
         style="fill:#231f20" />
      <path
         d="m 182.092,147.956 v 0.589 h -2.884 V 148 l 0.844,-0.044 z m -1.363,-1.266 v 4.37 a 0.6,0.6 0 0 0 0.132,0.439 0.616,0.616 0 0 0 0.449,0.133 h 0.65 l 0.088,0.571 a 3.23,3.23 0 0 1 -0.325,0.061 c -0.123,0.018 -0.243,0.031 -0.361,0.04 -0.118,0.009 -0.211,0.013 -0.281,0.013 a 1.067,1.067 0 0 1 -0.818,-0.3 1.211,1.211 0 0 1 -0.281,-0.861 v -4.466 z"
         id="path222"
         inkscape:connector-curvature="0"
         style="fill:#231f20" />
      <path
         d="m 183.586,146.137 a 0.2,0.2 0 0 1 0.229,0.228 v 0.5 a 0.2,0.2 0 0 1 -0.229,0.229 h -0.351 a 0.2,0.2 0 0 1 -0.229,-0.229 v -0.5 a 0.2,0.2 0 0 1 0.229,-0.228 z m 0.194,1.819 v 4.282 h -0.739 v -4.282 z"
         id="path224"
         inkscape:connector-curvature="0"
         style="fill:#231f20" />
      <path
         d="m 187,147.851 a 2.677,2.677 0 0 1 1.182,0.22 1.278,1.278 0 0 1 0.637,0.716 4.55,4.55 0 0 1 0,2.629 1.283,1.283 0 0 1 -0.637,0.717 3.278,3.278 0 0 1 -2.356,0 1.306,1.306 0 0 1 -0.642,-0.717 4.462,4.462 0 0 1 0,-2.629 1.3,1.3 0 0 1 0.642,-0.716 2.654,2.654 0 0 1 1.174,-0.22 z m 0,0.633 a 1.554,1.554 0 0 0 -0.735,0.145 0.823,0.823 0 0 0 -0.382,0.5 4.231,4.231 0 0 0 0,1.951 0.828,0.828 0 0 0 0.382,0.5 1.566,1.566 0 0 0 0.735,0.145 1.591,1.591 0 0 0 0.738,-0.145 0.823,0.823 0 0 0 0.387,-0.5 4.231,4.231 0 0 0 0,-1.951 0.818,0.818 0 0 0 -0.387,-0.5 1.578,1.578 0 0 0 -0.738,-0.145 z"
         id="path226"
         inkscape:connector-curvature="0"
         style="fill:#231f20" />
      <path
         d="m 190.813,147.956 0.062,0.818 0.052,0.132 v 3.332 h -0.747 v -4.282 z m 1.969,-0.1 a 1.034,1.034 0 0 1 1.161,1.178 v 3.209 H 193.2 v -3 a 0.932,0.932 0 0 0 -0.141,-0.593 0.6,0.6 0 0 0 -0.475,-0.163 1.787,1.787 0 0 0 -0.791,0.194 q -0.4,0.192 -0.941,0.527 l -0.035,-0.536 a 4.716,4.716 0 0 1 0.994,-0.6 2.426,2.426 0 0 1 0.971,-0.221 z"
         id="path228"
         inkscape:connector-curvature="0"
         style="fill:#231f20" />
    </g>
    <g
       id="g250"
       style="display:none">
      <path
         d="m 95.618,142.472 q 0.431,0.009 0.887,0.044 a 6.861,6.861 0 0 1 0.915,0.132 l -0.053,0.562 c -0.252,-0.011 -0.531,-0.022 -0.835,-0.03 -0.304,-0.008 -0.6,-0.014 -0.879,-0.014 -0.217,0 -0.4,0.008 -0.559,0.022 a 0.97,0.97 0 0 0 -0.382,0.106 0.477,0.477 0 0 0 -0.215,0.273 1.643,1.643 0 0 0 -0.066,0.523 1.04,1.04 0 0 0 0.18,0.7 1.125,1.125 0 0 0 0.584,0.295 l 1.231,0.308 a 1.466,1.466 0 0 1 0.963,0.584 2.113,2.113 0 0 1 0.259,1.122 2.548,2.548 0 0 1 -0.118,0.853 1,1 0 0 1 -0.365,0.5 1.557,1.557 0 0 1 -0.633,0.237 5.514,5.514 0 0 1 -0.914,0.066 c -0.2,0 -0.459,-0.008 -0.779,-0.026 a 8.882,8.882 0 0 1 -1.1,-0.141 l 0.053,-0.571 q 0.519,0.018 0.835,0.031 c 0.211,0.009 0.393,0.013 0.545,0.013 h 0.475 a 3.016,3.016 0 0 0 0.734,-0.07 0.559,0.559 0 0 0 0.378,-0.282 1.4,1.4 0 0 0 0.11,-0.624 1.485,1.485 0 0 0 -0.079,-0.545 0.593,0.593 0 0 0 -0.251,-0.295 1.591,1.591 0 0 0 -0.435,-0.163 l -1.257,-0.316 a 1.474,1.474 0 0 1 -0.927,-0.58 2,2 0 0 1 -0.269,-1.108 2.512,2.512 0 0 1 0.119,-0.849 0.96,0.96 0 0 1 0.361,-0.483 1.448,1.448 0 0 1 0.61,-0.215 6.342,6.342 0 0 1 0.877,-0.059 z"
         id="path232"
         inkscape:connector-curvature="0"
         style="fill:#231f20" />
      <path
         d="m 99.5,144.362 v 3.007 a 0.8,0.8 0 0 0 0.15,0.572 0.7,0.7 0 0 0 0.527,0.167 1.631,1.631 0 0 0 0.717,-0.172 8.013,8.013 0 0 0 0.857,-0.5 l 0.1,0.519 a 4.373,4.373 0 0 1 -0.972,0.6 2.388,2.388 0 0 1 -0.954,0.2 1.037,1.037 0 0 1 -1.169,-1.178 v -3.218 z m 2.919,0 v 4.282 h -0.6 l -0.071,-0.809 -0.079,-0.132 v -3.341 z"
         id="path234"
         inkscape:connector-curvature="0"
         style="fill:#231f20" />
      <path
         d="m 104.409,144.362 0.053,0.818 0.079,0.132 v 3.332 h -0.747 v -4.282 z m 1.794,-0.1 a 1.121,1.121 0 0 1 0.835,0.294 1.239,1.239 0 0 1 0.3,0.884 v 3.209 h -0.721 v -3 a 0.828,0.828 0 0 0 -0.167,-0.585 0.673,0.673 0 0 0 -0.5,-0.172 1.3,1.3 0 0 0 -0.426,0.071 2.167,2.167 0 0 0 -0.458,0.229 q -0.25,0.158 -0.611,0.422 l -0.053,-0.528 a 3.877,3.877 0 0 1 0.906,-0.62 2.1,2.1 0 0 1 0.892,-0.209 z m 2.8,0 a 1.14,1.14 0 0 1 0.849,0.3 1.207,1.207 0 0 1 0.294,0.88 v 3.209 h -0.738 v -3 a 0.929,0.929 0 0 0 -0.159,-0.576 0.628,0.628 0 0 0 -0.509,-0.181 1.283,1.283 0 0 0 -0.435,0.075 2.26,2.26 0 0 0 -0.453,0.234 q -0.247,0.157 -0.6,0.413 l -0.044,-0.528 a 3.853,3.853 0 0 1 0.905,-0.62 2.086,2.086 0 0 1 0.894,-0.211 z"
         id="path236"
         inkscape:connector-curvature="0"
         style="fill:#231f20" />
      <path
         d="m 112.111,144.362 0.053,0.818 0.079,0.132 v 3.332 H 111.5 v -4.282 z m 1.794,-0.1 a 1.121,1.121 0 0 1 0.835,0.294 1.239,1.239 0 0 1 0.3,0.884 v 3.209 h -0.721 v -3 a 0.828,0.828 0 0 0 -0.167,-0.585 0.67,0.67 0 0 0 -0.5,-0.172 1.3,1.3 0 0 0 -0.426,0.071 2.191,2.191 0 0 0 -0.458,0.229 c -0.167,0.105 -0.37,0.246 -0.611,0.422 l -0.052,-0.528 a 3.853,3.853 0 0 1 0.905,-0.62 2.1,2.1 0 0 1 0.895,-0.209 z m 2.8,0 a 1.14,1.14 0 0 1 0.848,0.3 1.207,1.207 0 0 1 0.295,0.88 v 3.209 h -0.739 v -3 a 0.936,0.936 0 0 0 -0.158,-0.576 0.631,0.631 0 0 0 -0.51,-0.181 1.287,1.287 0 0 0 -0.435,0.075 2.287,2.287 0 0 0 -0.453,0.234 c -0.164,0.1 -0.364,0.243 -0.6,0.413 l -0.044,-0.528 a 3.873,3.873 0 0 1 0.905,-0.62 2.087,2.087 0 0 1 0.896,-0.211 z"
         id="path238"
         inkscape:connector-curvature="0"
         style="fill:#231f20" />
      <path
         d="m 122.336,146.006 -0.008,0.563 -2.049,0.009 a 0.544,0.544 0 0 0 -0.431,0.163 0.663,0.663 0 0 0 -0.123,0.426 v 0.272 a 0.661,0.661 0 0 0 0.158,0.489 0.717,0.717 0 0 0 0.51,0.153 1.986,1.986 0 0 0 0.559,-0.092 2.626,2.626 0 0 0 0.628,-0.286 2.55,2.55 0 0 0 0.58,-0.492 v 0.553 a 2.361,2.361 0 0 1 -0.277,0.287 2.978,2.978 0 0 1 -0.43,0.316 2.627,2.627 0 0 1 -0.554,0.255 2.076,2.076 0 0 1 -0.655,0.1 1.551,1.551 0 0 1 -0.668,-0.136 1.024,1.024 0 0 1 -0.453,-0.405 1.234,1.234 0 0 1 -0.163,-0.655 v -0.466 a 0.984,0.984 0 0 1 0.313,-0.778 1.268,1.268 0 0 1 0.874,-0.277 z m -1.116,-1.749 a 2.238,2.238 0 0 1 0.8,0.127 0.936,0.936 0 0 1 0.5,0.426 1.693,1.693 0 0 1 0.167,0.818 v 3.016 H 122.1 l -0.115,-0.932 -0.052,-0.1 v -1.987 a 0.759,0.759 0 0 0 -0.18,-0.567 1.026,1.026 0 0 0 -0.69,-0.172 c -0.224,0 -0.5,0.013 -0.84,0.036 -0.34,0.023 -0.67,0.05 -1,0.079 l -0.071,-0.554 c 0.2,-0.035 0.418,-0.067 0.656,-0.1 0.238,-0.033 0.479,-0.052 0.725,-0.07 0.246,-0.018 0.476,-0.02 0.687,-0.02 z"
         id="path240"
         inkscape:connector-curvature="0"
         style="fill:#231f20" />
      <path
         d="m 126.46,144.362 v 0.589 h -2.884 v -0.545 l 0.844,-0.044 z M 125.1,143.1 v 4.37 a 0.6,0.6 0 0 0 0.132,0.439 0.618,0.618 0 0 0 0.448,0.132 h 0.651 l 0.088,0.572 a 3.254,3.254 0 0 1 -0.326,0.061 c -0.123,0.018 -0.243,0.031 -0.36,0.04 -0.117,0.009 -0.211,0.013 -0.282,0.013 a 1.069,1.069 0 0 1 -0.817,-0.3 1.208,1.208 0 0 1 -0.281,-0.862 V 143.1 Z"
         id="path242"
         inkscape:connector-curvature="0"
         style="fill:#231f20" />
      <path
         d="m 127.954,142.542 a 0.2,0.2 0 0 1 0.229,0.229 v 0.5 a 0.2,0.2 0 0 1 -0.229,0.228 H 127.6 a 0.2,0.2 0 0 1 -0.229,-0.228 v -0.5 a 0.2,0.2 0 0 1 0.229,-0.229 z m 0.194,1.82 v 4.282 h -0.739 v -4.282 z"
         id="path244"
         inkscape:connector-curvature="0"
         style="fill:#231f20" />
      <path
         d="m 131.365,144.257 a 2.7,2.7 0 0 1 1.183,0.219 1.287,1.287 0 0 1 0.637,0.717 4.573,4.573 0 0 1 0,2.629 1.282,1.282 0 0 1 -0.637,0.716 2.682,2.682 0 0 1 -1.183,0.22 2.654,2.654 0 0 1 -1.174,-0.22 1.308,1.308 0 0 1 -0.642,-0.716 4.484,4.484 0 0 1 0,-2.629 1.313,1.313 0 0 1 0.642,-0.717 2.67,2.67 0 0 1 1.174,-0.219 z m 0,0.632 a 1.549,1.549 0 0 0 -0.734,0.146 0.819,0.819 0 0 0 -0.382,0.5 4.195,4.195 0 0 0 0,1.951 0.819,0.819 0 0 0 0.382,0.5 1.55,1.55 0 0 0 0.734,0.145 1.58,1.58 0 0 0 0.739,-0.145 0.817,0.817 0 0 0 0.386,-0.5 4.195,4.195 0 0 0 0,-1.951 0.817,0.817 0 0 0 -0.386,-0.5 1.579,1.579 0 0 0 -0.739,-0.146 z"
         id="path246"
         inkscape:connector-curvature="0"
         style="fill:#231f20" />
      <path
         d="m 135.181,144.362 0.062,0.818 0.052,0.132 v 3.332 h -0.747 v -4.282 z m 1.969,-0.1 a 1.034,1.034 0 0 1 1.161,1.178 v 3.209 h -0.747 v -3 a 0.926,0.926 0 0 0 -0.141,-0.593 0.6,0.6 0 0 0 -0.475,-0.164 1.79,1.79 0 0 0 -0.791,0.194 q -0.4,0.194 -0.941,0.528 l -0.035,-0.536 a 4.716,4.716 0 0 1 0.994,-0.6 2.409,2.409 0 0 1 0.975,-0.221 z"
         id="path248"
         inkscape:connector-curvature="0"
         style="fill:#231f20" />
    </g>
    <g
       id="g264"
       style="display:none">
      <path
         d="m 218.132,142.463 a 3.5,3.5 0 0 1 1.121,0.158 1.52,1.52 0 0 1 0.738,0.523 2.417,2.417 0 0 1 0.4,0.972 8.857,8.857 0 0 1 0,2.989 2.4,2.4 0 0 1 -0.4,0.972 1.52,1.52 0 0 1 -0.738,0.523 4.056,4.056 0 0 1 -2.242,0 1.553,1.553 0 0 1 -0.743,-0.523 2.365,2.365 0 0 1 -0.409,-0.972 8.857,8.857 0 0 1 0,-2.989 2.377,2.377 0 0 1 0.409,-0.972 1.553,1.553 0 0 1 0.743,-0.523 3.489,3.489 0 0 1 1.121,-0.158 z m 0,0.695 a 1.7,1.7 0 0 0 -0.945,0.228 1.263,1.263 0 0 0 -0.493,0.761 7.438,7.438 0 0 0 0,2.923 1.264,1.264 0 0 0 0.493,0.765 2.064,2.064 0 0 0 1.89,0 1.259,1.259 0 0 0 0.492,-0.765 7.438,7.438 0 0 0 0,-2.923 1.257,1.257 0 0 0 -0.492,-0.761 1.707,1.707 0 0 0 -0.945,-0.228 z"
         id="path252"
         inkscape:connector-curvature="0"
         style="fill:#231f20" />
      <path
         d="m 222.476,144.362 v 3.007 a 0.8,0.8 0 0 0 0.148,0.572 0.7,0.7 0 0 0 0.527,0.167 1.624,1.624 0 0 0 0.717,-0.172 7.822,7.822 0 0 0 0.858,-0.5 l 0.1,0.519 a 4.4,4.4 0 0 1 -0.972,0.6 2.387,2.387 0 0 1 -0.953,0.2 1.037,1.037 0 0 1 -1.17,-1.178 v -3.218 z m 2.918,0 v 4.282 h -0.6 l -0.07,-0.809 -0.079,-0.132 v -3.341 z"
         id="path254"
         inkscape:connector-curvature="0"
         style="fill:#231f20" />
      <path
         d="m 229.2,144.362 v 0.589 h -2.883 v -0.545 l 0.844,-0.044 z m -1.362,-1.266 v 4.37 a 0.6,0.6 0 0 0 0.132,0.439 0.621,0.621 0 0 0 0.449,0.132 h 0.65 l 0.088,0.572 a 3.2,3.2 0 0 1 -0.326,0.061 c -0.123,0.018 -0.242,0.031 -0.359,0.04 -0.117,0.009 -0.212,0.013 -0.282,0.013 a 1.071,1.071 0 0 1 -0.818,-0.3 1.212,1.212 0 0 1 -0.281,-0.862 V 143.1 Z"
         id="path256"
         inkscape:connector-curvature="0"
         style="fill:#231f20" />
      <path
         d="m 230.731,144.362 0.079,0.888 0.052,0.115 v 2.743 l -0.035,0.1 c 0.018,0.164 0.028,0.322 0.031,0.475 0.003,0.153 0,0.313 0,0.483 v 1.24 h -0.748 v -6.049 z m 1.836,-0.1 a 1.209,1.209 0 0 1 1.126,0.575 3.361,3.361 0 0 1 0.343,1.693 3.959,3.959 0 0 1 -0.176,1.314 1.273,1.273 0 0 1 -0.531,0.7 1.764,1.764 0 0 1 -0.91,0.211 3.092,3.092 0 0 1 -0.832,-0.114 3.135,3.135 0 0 1 -0.795,-0.351 l 0.044,-0.449 c 0.275,0.076 0.519,0.139 0.729,0.189 a 2.891,2.891 0 0 0 0.668,0.075 1.185,1.185 0 0 0 0.6,-0.132 0.789,0.789 0 0 0 0.33,-0.475 3.458,3.458 0 0 0 0.106,-0.967 3.774,3.774 0 0 0 -0.1,-0.958 0.786,0.786 0 0 0 -0.854,-0.66 1.56,1.56 0 0 0 -0.693,0.168 5.09,5.09 0 0 0 -0.8,0.509 l -0.07,-0.5 a 2.583,2.583 0 0 1 0.536,-0.44 2.675,2.675 0 0 1 0.629,-0.285 2.176,2.176 0 0 1 0.65,-0.108 z"
         id="path258"
         inkscape:connector-curvature="0"
         style="fill:#231f20" />
      <path
         d="m 235.936,144.362 v 3.007 a 0.8,0.8 0 0 0 0.149,0.572 0.7,0.7 0 0 0 0.527,0.167 1.627,1.627 0 0 0 0.717,-0.172 8.013,8.013 0 0 0 0.858,-0.5 l 0.1,0.519 a 4.414,4.414 0 0 1 -0.971,0.6 2.4,2.4 0 0 1 -0.955,0.2 1.036,1.036 0 0 1 -1.168,-1.178 v -3.218 z m 2.919,0 v 4.282 h -0.6 l -0.07,-0.809 -0.08,-0.132 v -3.341 z"
         id="path260"
         inkscape:connector-curvature="0"
         style="fill:#231f20" />
      <path
         d="m 242.661,144.362 v 0.589 h -2.884 v -0.545 l 0.845,-0.044 z M 241.3,143.1 v 4.37 a 0.6,0.6 0 0 0 0.133,0.439 0.618,0.618 0 0 0 0.448,0.132 h 0.65 l 0.088,0.572 a 3.23,3.23 0 0 1 -0.325,0.061 c -0.123,0.018 -0.243,0.031 -0.36,0.04 -0.117,0.009 -0.212,0.013 -0.283,0.013 a 1.068,1.068 0 0 1 -0.816,-0.3 1.212,1.212 0 0 1 -0.281,-0.862 V 143.1 Z"
         id="path262"
         inkscape:connector-curvature="0"
         style="fill:#231f20" />
    </g>
    <g
       id="g274">
      <path
         d="m 108.34,5.337 a 4.143,4.143 0 0 1 1.187,0.137 1.062,1.062 0 0 1 0.637,0.478 1.955,1.955 0 0 1 0.2,0.968 1.712,1.712 0 0 1 -0.242,0.993 1.021,1.021 0 0 1 -0.786,0.4 v 0.035 a 1.172,1.172 0 0 1 0.944,0.475 2.087,2.087 0 0 1 0.268,1.143 1.987,1.987 0 0 1 -0.193,0.967 1.039,1.039 0 0 1 -0.62,0.48 3.811,3.811 0 0 1 -1.121,0.135 c -0.345,0 -0.643,0 -0.892,0 -0.249,0 -0.479,-0.01 -0.69,-0.022 -0.211,-0.012 -0.431,-0.026 -0.659,-0.044 l 0.123,-0.615 c 0.129,0.006 0.373,0.011 0.734,0.017 0.361,0.006 0.781,0.009 1.261,0.009 a 2.734,2.734 0 0 0 0.761,-0.083 0.629,0.629 0 0 0 0.4,-0.312 1.469,1.469 0 0 0 0.118,-0.66 1.731,1.731 0 0 0 -0.123,-0.73 0.7,0.7 0 0 0 -0.413,-0.36 2.5,2.5 0 0 0 -0.791,-0.115 h -1.952 V 8.036 h 1.943 a 2.521,2.521 0 0 0 0.7,-0.091 0.618,0.618 0 0 0 0.374,-0.309 1.406,1.406 0 0 0 0.114,-0.628 1.32,1.32 0 0 0 -0.123,-0.633 0.64,0.64 0 0 0 -0.409,-0.3 3.02,3.02 0 0 0 -0.778,-0.08 h -0.774 c -0.229,0 -0.429,0 -0.6,0 -0.171,0 -0.318,0.01 -0.435,0.022 L 106.38,5.402 q 0.307,-0.036 0.584,-0.048 0.277,-0.012 0.607,-0.018 c 0.21,0.003 0.47,10e-4 0.769,10e-4 z m -1.213,0.071 v 6.066 h -0.756 V 5.408 Z"
         id="path266"
         inkscape:connector-curvature="0"
         style="fill:#231f20" />
      <path
         d="m 112.323,5.372 a 0.2,0.2 0 0 1 0.228,0.229 v 0.5 a 0.2,0.2 0 0 1 -0.228,0.228 h -0.352 A 0.2,0.2 0 0 1 111.742,6.101 V 5.6 a 0.2,0.2 0 0 1 0.229,-0.229 z m 0.193,1.821 v 4.281 h -0.739 V 7.193 Z"
         id="path268"
         inkscape:connector-curvature="0"
         style="fill:#231f20" />
      <path
         d="M 117.062,8.836 117.053,9.4 115,9.409 a 0.541,0.541 0 0 0 -0.431,0.162 0.665,0.665 0 0 0 -0.123,0.426 v 0.273 a 0.656,0.656 0 0 0 0.158,0.488 0.712,0.712 0 0 0 0.51,0.153 2.018,2.018 0 0 0 0.559,-0.091 2.707,2.707 0 0 0 0.628,-0.286 2.509,2.509 0 0 0 0.58,-0.493 V 10.6 a 2.288,2.288 0 0 1 -0.277,0.286 2.907,2.907 0 0 1 -0.43,0.317 2.676,2.676 0 0 1 -0.554,0.254 2.048,2.048 0 0 1 -0.655,0.1 1.551,1.551 0 0 1 -0.668,-0.136 1.022,1.022 0 0 1 -0.453,-0.4 1.236,1.236 0 0 1 -0.163,-0.655 V 9.892 A 0.982,0.982 0 0 1 114,9.114 1.268,1.268 0 0 1 114.874,8.836 Z m -1.117,-1.749 a 2.238,2.238 0 0 1 0.8,0.127 0.938,0.938 0 0 1 0.5,0.427 1.686,1.686 0 0 1 0.167,0.817 v 3.016 h -0.589 l -0.114,-0.932 -0.053,-0.1 V 8.458 a 0.755,0.755 0 0 0 -0.18,-0.566 1.017,1.017 0 0 0 -0.69,-0.172 q -0.335,0 -0.84,0.035 -0.505,0.035 -1,0.079 l -0.071,-0.553 c 0.2,-0.036 0.418,-0.068 0.656,-0.1 0.238,-0.032 0.479,-0.053 0.725,-0.07 0.246,-0.017 0.478,-0.024 0.689,-0.024 z"
         id="path270"
         inkscape:connector-curvature="0"
         style="fill:#231f20" />
      <path
         d="m 120.173,7.087 q 0.282,0 0.6,0.018 c 0.21,0.012 0.42,0.026 0.628,0.044 0.208,0.018 0.4,0.041 0.576,0.07 l -0.061,0.545 Q 121.511,7.746 121.102,7.733 120.693,7.72 120.289,7.72 a 4.692,4.692 0 0 0 -0.624,0.018 0.5,0.5 0 0 0 -0.33,0.14 0.585,0.585 0 0 0 -0.1,0.387 0.5,0.5 0 0 0 0.158,0.439 1.428,1.428 0 0 0 0.466,0.176 l 1.249,0.281 a 1.507,1.507 0 0 1 0.751,0.379 1.128,1.128 0 0 1 0.242,0.8 1.31,1.31 0 0 1 -0.2,0.791 0.978,0.978 0 0 1 -0.6,0.352 5.013,5.013 0 0 1 -1.028,0.088 q -0.23,0 -0.682,-0.018 a 8.536,8.536 0 0 1 -1,-0.105 l 0.053,-0.545 c 0.14,0.006 0.29,0.013 0.448,0.022 0.158,0.009 0.324,0.013 0.5,0.013 h 0.532 a 5.065,5.065 0 0 0 0.756,-0.044 0.636,0.636 0 0 0 0.387,-0.172 0.555,0.555 0 0 0 0.114,-0.382 0.445,0.445 0 0 0 -0.185,-0.422 1.806,1.806 0 0 0 -0.492,-0.175 l -1.231,-0.282 a 1.713,1.713 0 0 1 -0.562,-0.233 0.841,0.841 0 0 1 -0.308,-0.378 1.525,1.525 0 0 1 -0.1,-0.585 1.336,1.336 0 0 1 0.176,-0.756 0.878,0.878 0 0 1 0.545,-0.343 3.979,3.979 0 0 1 0.949,-0.079 z"
         id="path272"
         inkscape:connector-curvature="0"
         style="fill:#231f20" />
    </g>
    <g
       id="g286"
       style="display:none">
      <path
         d="m 7.286,142.577 v 6.067 H 6.512 v -6.067 z"
         id="path276"
         inkscape:connector-curvature="0"
         style="fill:#231f20" />
      <path
         d="m 9.369,144.362 0.062,0.818 0.052,0.132 v 3.332 H 8.736 v -4.282 z m 1.969,-0.1 a 1.034,1.034 0 0 1 1.161,1.178 v 3.209 h -0.747 v -3 a 0.926,0.926 0 0 0 -0.141,-0.593 0.6,0.6 0 0 0 -0.475,-0.164 1.79,1.79 0 0 0 -0.791,0.194 q -0.4,0.194 -0.941,0.528 l -0.035,-0.536 a 4.716,4.716 0 0 1 0.994,-0.6 2.409,2.409 0 0 1 0.975,-0.221 z"
         id="path278"
         inkscape:connector-curvature="0"
         style="fill:#231f20" />
      <path
         d="m 14.46,144.362 0.079,0.888 0.053,0.115 v 2.743 l -0.035,0.1 c 0.017,0.164 0.028,0.322 0.03,0.475 0.002,0.153 0.005,0.313 0.005,0.483 v 1.24 h -0.748 v -6.049 z m 1.837,-0.1 a 1.21,1.21 0 0 1 1.126,0.575 3.372,3.372 0 0 1 0.343,1.693 3.986,3.986 0 0 1 -0.176,1.314 1.27,1.27 0 0 1 -0.532,0.7 1.761,1.761 0 0 1 -0.91,0.211 3.066,3.066 0 0 1 -1.626,-0.465 l 0.043,-0.449 q 0.414,0.114 0.73,0.189 a 2.891,2.891 0 0 0 0.668,0.075 1.181,1.181 0 0 0 0.6,-0.132 0.79,0.79 0 0 0 0.331,-0.475 3.464,3.464 0 0 0 0.105,-0.967 3.728,3.728 0 0 0 -0.1,-0.958 0.784,0.784 0 0 0 -0.853,-0.66 1.564,1.564 0 0 0 -0.694,0.168 5.087,5.087 0 0 0 -0.8,0.509 l -0.071,-0.5 a 2.589,2.589 0 0 1 0.537,-0.44 2.686,2.686 0 0 1 0.628,-0.285 2.177,2.177 0 0 1 0.654,-0.108 z"
         id="path280"
         inkscape:connector-curvature="0"
         style="fill:#231f20" />
      <path
         d="m 19.665,144.362 v 3.007 a 0.8,0.8 0 0 0 0.149,0.572 0.7,0.7 0 0 0 0.527,0.167 1.627,1.627 0 0 0 0.717,-0.172 8.112,8.112 0 0 0 0.858,-0.5 l 0.1,0.519 a 4.391,4.391 0 0 1 -0.971,0.6 2.4,2.4 0 0 1 -0.955,0.2 1.037,1.037 0 0 1 -1.169,-1.178 v -3.218 z m 2.919,0 v 4.282 h -0.6 l -0.07,-0.809 -0.08,-0.132 v -3.341 z"
         id="path282"
         inkscape:connector-curvature="0"
         style="fill:#231f20" />
      <path
         d="m 26.39,144.362 v 0.589 h -2.884 v -0.545 l 0.845,-0.044 z M 25.027,143.1 v 4.37 a 0.6,0.6 0 0 0 0.132,0.439 0.623,0.623 0 0 0 0.449,0.132 h 0.65 l 0.088,0.572 a 3.177,3.177 0 0 1 -0.325,0.061 c -0.123,0.018 -0.243,0.031 -0.36,0.04 -0.117,0.009 -0.212,0.013 -0.282,0.013 a 1.069,1.069 0 0 1 -0.817,-0.3 1.208,1.208 0 0 1 -0.282,-0.862 V 143.1 Z"
         id="path284"
         inkscape:connector-curvature="0"
         style="fill:#231f20" />
    </g>
    <text
       xml:space="preserve"
       style="font-style:normal;font-weight:normal;font-size:8px;line-height:1.25;font-family:sans-serif;letter-spacing:0px;word-spacing:0px;fill:#000000;fill-opacity:1;stroke:none"
       x="33.660076"
       y="149.43781"
       id="text304"><tspan
         sodipodi:role="line"
         id="tspan302"
         x="33.660076"
         y="149.43781">Gewichten</tspan></text>
    <text
       xml:space="preserve"
       style="font-style:normal;font-weight:normal;font-size:8px;line-height:1.25;font-family:sans-serif;letter-spacing:0px;word-spacing:0px;display:inline;fill:#000000;fill-opacity:1;stroke:none"
       x="95.563545"
       y="149.41646"
       id="text308"><tspan
         sodipodi:role="line"
         id="tspan306"
         x="95.563545"
         y="149.41646">Sommatie</tspan></text>
    <text
       xml:space="preserve"
       style="font-style:normal;font-weight:normal;font-size:8px;line-height:1.25;font-family:sans-serif;letter-spacing:0px;word-spacing:0px;fill:#000000;fill-opacity:1;stroke:none"
       x="145.85609"
       y="149.41646"
       id="text312"><tspan
         sodipodi:role="line"
         id="tspan310"
         x="145.85609"
         y="149.41646">Activatiefunctie</tspan></text>
    <text
       xml:space="preserve"
       style="font-style:normal;font-weight:normal;font-size:8px;line-height:1.25;font-family:sans-serif;letter-spacing:0px;word-spacing:0px;fill:#000000;fill-opacity:1;stroke:none"
       x="214.3215"
       y="149.41646"
       id="text316"><tspan
         sodipodi:role="line"
         id="tspan314"
         x="214.3215"
         y="149.41646">Uitvoer</tspan></text>
  </g>
  <text
     xml:space="preserve"
     style="font-style:normal;font-weight:normal;font-size:8px;line-height:1.25;font-family:sans-serif;letter-spacing:0px;word-spacing:0px;fill:#000000;fill-opacity:1;stroke:none"
     x="3.4236562"
     y="149.35088"
     id="text300"><tspan
       sodipodi:role="line"
       id="tspan298"
       x="3.4236562"
       y="149.35088">Invoer</tspan></text>
</svg>
